<?xml version="1.0" encoding="UTF-8"?>
<svg id="Layer_1" data-name="Layer 1" xmlns="http://www.w3.org/2000/svg" xmlns:xlink="http://www.w3.org/1999/xlink" viewBox="0 0 253.68 222.96">
  <defs>
    <style>
      .cls-1, .cls-2, .cls-3 {
        fill: #d91f2b;
      }

      .cls-4 {
        filter: url(#drop-shadow-2);
      }

      .cls-4, .cls-5, .cls-6 {
        fill: #2b2d42;
      }

      .cls-5 {
        filter: url(#drop-shadow-4);
      }

      .cls-2 {
        fill-rule: evenodd;
      }

      .cls-7 {
        filter: url(#drop-shadow-5);
      }

      .cls-3 {
        filter: url(#drop-shadow-1);
      }

      .cls-6 {
        filter: url(#drop-shadow-3);
      }
    </style>
    <filter id="drop-shadow-1" filterUnits="userSpaceOnUse">
      <feOffset dx="4" dy="4"/>
      <feGaussianBlur result="blur" stdDeviation="5"/>
      <feFlood flood-color="#231f20" flood-opacity=".22"/>
      <feComposite in2="blur" operator="in"/>
      <feComposite in="SourceGraphic"/>
    </filter>
    <filter id="drop-shadow-2" filterUnits="userSpaceOnUse">
      <feOffset dx="4" dy="4"/>
      <feGaussianBlur result="blur-2" stdDeviation="5"/>
      <feFlood flood-color="#231f20" flood-opacity=".22"/>
      <feComposite in2="blur-2" operator="in"/>
      <feComposite in="SourceGraphic"/>
    </filter>
    <filter id="drop-shadow-3" filterUnits="userSpaceOnUse">
      <feOffset dx="4" dy="4"/>
      <feGaussianBlur result="blur-3" stdDeviation="5"/>
      <feFlood flood-color="#231f20" flood-opacity=".22"/>
      <feComposite in2="blur-3" operator="in"/>
      <feComposite in="SourceGraphic"/>
    </filter>
    <filter id="drop-shadow-4" filterUnits="userSpaceOnUse">
      <feOffset dx="4" dy="4"/>
      <feGaussianBlur result="blur-4" stdDeviation="5"/>
      <feFlood flood-color="#231f20" flood-opacity=".22"/>
      <feComposite in2="blur-4" operator="in"/>
      <feComposite in="SourceGraphic"/>
    </filter>
    <filter id="drop-shadow-5" filterUnits="userSpaceOnUse">
      <feOffset dx="4" dy="4"/>
      <feGaussianBlur result="blur-5" stdDeviation="5"/>
      <feFlood flood-color="#231f20" flood-opacity=".22"/>
      <feComposite in2="blur-5" operator="in"/>
      <feComposite in="SourceGraphic"/>
    </filter>
  </defs>
  <path class="cls-3" d="m193.88,71.66c-22.16,0-40.25,18.08-40.25,40.25,0,9.57,3.37,18.26,8.87,25.18,4.08,5.14,7.45,11.17,9.75,17.37l17.38,46.29c.71,1.77,2.48,3.01,4.43,3.01s3.73-1.24,4.44-3.01l17.37-46.29c2.31-6.2,5.5-12.05,9.76-17.37,5.49-6.92,8.86-15.61,8.86-25.18-.35-22.34-18.44-40.25-40.61-40.25Zm0,67.38c-14.89,0-27.13-12.24-27.13-27.13s12.24-27.13,27.13-27.13,27.13,12.23,27.13,27.13-12.23,27.13-27.13,27.13Z"/>
  <path class="cls-4" d="m43.42,11.04c-17.73,0-32.27,14.54-32.27,32.45,0,7.63,2.66,14.72,7.09,20.22,3.37,4.25,5.86,8.86,7.81,14.01l14,37.23c.54,1.42,1.95,2.49,3.55,2.49s3.01-.89,3.55-2.49l14-37.23c1.78-5.15,4.26-9.93,7.63-14.01,4.43-5.5,7.09-12.59,7.09-20.22,0-17.91-14.54-32.45-32.45-32.45Zm0,51.6c-10.64,0-19.15-8.69-19.15-19.15s8.69-19.15,19.15-19.15,19.15,8.69,19.15,19.15c.18,10.46-8.51,19.15-19.15,19.15Z"/>
  <path class="cls-6" d="m105.96,190.46c-6.37,0-9.61-7.65-5.17-12.22l45.59-47c2.48-2.66,2.48-6.74,0-9.22l-34.58-34.58c-1.24-1.24-2.84-1.95-4.61-1.95h-34.74c-5.45,0-10.33,3.37-12.26,8.47l-1.76,4.65h38.43c4.8,0,9.4,1.91,12.79,5.3l9.48,9.48c7.34,7.34,7.44,19.22.22,26.69l-50.64,52.33c-1.77,1.95-2.31,4.79-1.42,7.09,1.06,2.48,3.37,4.08,6.03,4.08h109.59l-1.67-4.4c-1.99-5.25-7.01-8.72-12.62-8.72h-62.67Z"/>
  <path class="cls-5" d="m211.32,111.97l-16.12-17.8c-.29-.31-.69-.48-1.11-.48s-.82.17-1.11.48l-16.64,17.9c-.41.44-.52,1.08-.28,1.63.24.55.78.91,1.38.91h4.28v12.94c0,1.43,1.12,2.59,2.55,2.59h3.06c.95,0,1.72-.77,1.72-1.72v-6.47c0-.95.77-1.72,1.72-1.72h6.04c.95,0,1.72.77,1.72,1.72v6.47c0,.95.77,1.72,1.72,1.72h2.98c1.43,0,2.63-1.16,2.63-2.59v-12.94h4.42s0,0,0,0c.83,0,1.51-.68,1.51-1.51,0-.45-.19-.85-.5-1.12h0Z"/>
  <g class="cls-7">
    <path class="cls-2" d="m46.34,28.59l.26-1.43-.31-.06-.3,1.69.87.16.1-.25-.62-.11Zm2.42-.86l-1.08,1.44.31.11.27-.38.49.17v.46s.31.11.31.11l.03-1.8-.33-.11Zm.04.47c-.01.08-.01.16-.02.24,0,.08-.01.16-.01.24,0,.04-.01.08-.01.11l-.34-.11c.07-.1.13-.19.2-.29.06-.09.12-.18.18-.27v.08Zm1.65.19l-.12.23.38.2-.66,1.29.27.14.66-1.29.38.19.16-.21-1.07-.55Zm2.77,1.64l-.8.59c-.08.06-.17.12-.24.19.04-.09.07-.18.09-.27l.31-.96-.27-.2-.53,1.74.23.16,1.48-1.06-.27-.19Zm1.13.89l-1.12,1.3.24.21,1.12-1.3-.24-.21Zm1.67,2.07l.23-.14-.64-.73-1.29,1.12.65.75.2-.18-.44-.51.37-.32.34.39.2-.17-.34-.4.32-.28.4.47Zm1.51,1.62l-.65.43c-.11.07-.21.14-.31.22.07-.1.14-.2.2-.3l.48-.8-.19-.29-1.44.93.17.26.69-.46c.11-.07.21-.14.31-.21-.07.09-.13.19-.19.29-.02.03-.04.06-.05.08l-.47.76.17.27,1.45-.93-.17-.25Zm1.12,2c-.08-.17-.21-.32-.41-.36-.1-.02-.2,0-.3.04-.08.03-.15.09-.2.17-.07.11-.07.26-.05.39l.03.18c.01.13.01.26-.12.32-.17.07-.29-.04-.36-.19-.07-.15-.08-.29-.06-.46v-.02h-.27s0,.01,0,.01c-.02.19.01.39.09.57.12.26.36.48.66.42.05,0,.09-.02.12-.03.25-.11.32-.35.28-.6l-.03-.2c-.01-.11-.03-.22.09-.27.13-.06.24.03.3.15.06.13.06.26.04.4v.02l.26.03h.01c.03-.2,0-.4-.08-.57Zm1.25,3.97c-.06-.31-.28-.55-.61-.49-.09.01-.17.05-.24.12-.1.09-.13.23-.14.36l-.02.19c-.01.12-.05.25-.19.27-.18.04-.28-.1-.3-.26-.03-.17,0-.31.05-.47h.01s-.26-.09-.26-.09v.02c-.08.18-.09.38-.06.57.05.29.23.55.54.57.04.01.08.01.13,0,.26-.05.38-.26.41-.51l.02-.2c0-.11.03-.22.15-.25.15-.02.23.09.25.22.03.15,0,.27-.05.41h-.01s.25.11.25.11h0c.08-.18.1-.39.07-.57Zm-.6-2.24l-1.62.55.1.3,1.63-.55-.11-.3Z"/>
    <path class="cls-2" d="m35.84,30.13s-.03-.08-.05-.11c-.15-.23-.39-.26-.63-.19l-.2.06c-.1.03-.21.06-.28-.05-.08-.12-.01-.25.11-.32.12-.08.25-.1.39-.1h.02v-.27h-.02c-.19-.01-.38.06-.54.16-.26.17-.4.47-.22.75.05.08.11.14.2.17.12.06.27.04.39,0l.18-.06c.12-.03.25-.05.33.07.1.16.01.3-.13.38-.14.09-.28.12-.45.13h-.02l.03.27h.02c.19,0,.39-.07.55-.17.24-.16.42-.43.32-.72Zm.8-1.84l-.29.13.7,1.56.29-.13-.7-1.56Zm1.88-.43l.4-.14-.05-.26-1.13.38.08.25.4-.13.47,1.37.29-.1-.46-1.37Zm2.1-.77l-.34.06-.25,1.78.32-.05.06-.46.51-.09.21.41.33-.06-.84-1.59Zm-.18,1.05c.01-.11.02-.23.03-.34.02-.11.03-.22.04-.33.01.02.02.05.03.07.03.07.07.15.1.22.04.07.07.15.11.22.02.03.03.07.05.1l-.36.06Zm2.7-.59l-.21-.05c-.1-.03-.21-.06-.21-.19-.01-.14.12-.21.25-.21.15-.01.27.04.39.11h.02s.13-.22.13-.22h-.01c-.16-.11-.36-.16-.54-.15-.32,0-.59.19-.58.53,0,.09.03.17.08.25.08.11.21.16.34.2l.18.04c.12.04.24.09.25.23,0,.19-.15.26-.31.26-.17.01-.31-.04-.45-.12h-.02s-.11.23-.11.23h.01c.17.11.37.15.56.15.29-.01.58-.14.65-.45,0-.04,0-.08,0-.12,0-.27-.19-.42-.43-.49Zm-9.36,3.95c-.1-.03-.27-.08-.38-.09.17-.17.14-.43-.02-.61-.22-.25-.51-.21-.75-.01l-.4.35,1.12,1.3.24-.21-.48-.54s.05-.03.09-.02c.17,0,.33.07.49.12l.29.11.28-.25-.48-.15Zm-.72-.07l-.1.08-.33-.38.11-.09c.13-.11.27-.18.4-.03.05.06.08.13.07.2,0,.09-.09.16-.15.22Zm-4.78,8.74l-1.21-.22-.05.31,1.12.2c.2.03.31.13.27.34-.04.22-.16.26-.37.22l-1.12-.2-.06.31,1.21.21c.37.07.55-.16.61-.49.06-.33-.05-.62-.4-.68Zm.18-1.74l.88-.11.1-.3-1.62-.55-.09.28.74.25c.12.04.24.07.36.1-.12.01-.24.02-.36.03l-.92.13-.11.32,1.63.55.1-.29-.79-.26c-.12-.04-.25-.08-.37-.11.12,0,.24-.02.36-.03.03,0,.06-.01.09-.01Zm.1-2.54l-.15.28,1.53.78.15-.28-1.53-.78Zm1.32-2.2l-.17.28.63.77c.06.08.12.15.18.22-.08-.02-.18-.05-.26-.07l-.98-.26-.18.28,1.76.45.16-.24-1.14-1.43Zm2.51-.72l-.44.51-.37-.32.33-.39-.2-.17-.34.39-.32-.28.4-.47-.17-.2-.63.73,1.29,1.12.65-.74-.2-.18Z"/>
    <path class="cls-2" d="m28.36,44.2c-.11-.12-.24-.16-.39-.16-.34,0-.56.25-.56.58h0c0,.32.2.54.51.54.13,0,.24-.04.33-.13-.02.2-.1.45-.34.45-.11,0-.2-.05-.29-.12l-.02-.02-.16.24.02.02c.13.1.28.16.45.16.5,0,.65-.49.65-.91h0c0-.24-.03-.49-.2-.65Zm-.39.7c-.17,0-.26-.12-.26-.29,0-.16.09-.3.26-.3s.27.13.27.3c0,.16-.1.29-.27.29Zm-1.17-.85l-.4.14.05.26.26-.07v1.35h.3v-1.67h-.21Z"/>
    <path class="cls-2" d="m60.06,44.2c-.11-.12-.24-.16-.39-.16-.33,0-.56.25-.56.58h0c0,.32.2.54.51.54.13,0,.24-.04.33-.13-.02.2-.1.45-.34.45-.11,0-.2-.05-.29-.12l-.02-.02-.16.24.02.02c.14.1.28.16.45.16.5,0,.65-.49.65-.91h0c0-.24-.03-.49-.2-.65Zm-.39.7c-.17,0-.26-.12-.26-.29,0-.16.09-.3.26-.3.18,0,.27.13.27.3,0,.16-.1.29-.27.29Zm-1.17-.85l-.39.14.05.26.25-.07v1.35h.3v-1.67h-.21Z"/>
    <polygon class="cls-2" points="35.69 56.63 34.96 57.88 34.69 57.72 35.42 56.47 35.05 56.26 35.18 56.03 36.22 56.63 36.05 56.84 35.69 56.63"/>
    <rect class="cls-1" x="36.05" y="57.77" width="1.71" height=".32" transform="translate(-31.11 67.5) rotate(-65.51)"/>
    <rect class="cls-1" x="29.69" y="52.54" width="1.71" height=".32" transform="translate(-24.73 27.12) rotate(-35.07)"/>
    <path class="cls-2" d="m39.16,57.86l-.33-.1-1.01,1.5.31.09.25-.39.5.14v.46s.33.1.33.1l-.05-1.8Zm-.27.37c0,.08-.01.16-.01.24v.36l-.35-.1c.07-.1.12-.2.19-.3.05-.09.11-.18.17-.28v.08Z"/>
    <polygon class="cls-2" points="40.9 58.53 40.84 58.96 41.36 59.03 41.32 59.29 40.81 59.22 40.75 59.71 41.42 59.8 41.38 60.06 40.4 59.93 40.63 58.23 41.59 58.36 41.51 58.61 40.9 58.53"/>
    <path class="cls-2" d="m28.82,48.96l.02.21c.02.25-.06.48-.3.58-.04.02-.08.03-.12.03-.31.04-.54-.18-.64-.45-.07-.18-.1-.38-.06-.58h0s.27,0,.27,0v.02c-.03.16-.03.31.04.47.06.15.18.27.35.2.13-.05.14-.18.13-.31l-.02-.19c-.01-.13,0-.28.07-.39.05-.08.12-.13.21-.16.1-.04.2-.05.3-.02.19.05.32.2.39.38.07.18.09.38.05.56h0s-.26-.04-.26-.04h0c.02-.16.03-.28-.03-.42-.05-.12-.16-.22-.29-.16-.12.05-.11.16-.1.27h0Z"/>
    <path class="cls-2" d="m29.47,50.93c-.12.07-.24.15-.32.26-.1.13-.1.28-.02.43.06.1.13.16.23.2h.02s-.1.24-.1.24h-.01c-.16-.07-.28-.19-.36-.34-.11-.19-.13-.39-.06-.6.08-.21.24-.36.43-.47.16-.09.33-.15.51-.16.27,0,.52.12.66.35.07.13.12.29.1.44h0s-.26,0-.26,0v-.02c.01-.1,0-.2-.06-.29-.07-.12-.19-.18-.33-.18-.15,0-.3.07-.42.14h0Z"/>
    <polygon class="cls-2" points="31.58 54.14 31.22 54.48 31.69 54.97 31.49 55.15 30.81 54.43 32.05 53.25 32.72 53.95 32.5 54.1 32.08 53.66 31.77 53.95 32.12 54.33 31.93 54.51 31.58 54.14"/>
    <path class="cls-2" d="m33.39,55.28c-.07.11-.15.21-.23.31l-.51.66-.24-.19,1.06-1.35.27.21-.19.91c-.03.12-.06.24-.1.35.07-.11.15-.21.22-.31l.48-.62.23.18-1.06,1.35-.25-.2.19-.86s.01-.06.02-.09c.03-.12.05-.23.09-.35h0Z"/>
    <rect class="cls-1" x="55.94" y="52.08" width=".32" height="1.71" transform="translate(-19.76 66.9) rotate(-53.76)"/>
    <path class="cls-2" d="m58.12,51.34l.16-.3-1.77-.32-.17.31,1.25,1.3.16-.28-.33-.33.24-.46.46.08Zm-.9.18c-.08-.08-.16-.16-.25-.24-.08-.08-.16-.15-.24-.23.03,0,.06,0,.08.02.08.02.16.04.23.05.08.02.17.04.25.06.03.01.07.01.1.02l-.17.32Z"/>
    <polygon class="cls-2" points="57.56 49.1 57.95 49.26 58.15 48.78 58.39 48.88 58.2 49.36 58.65 49.54 58.91 48.92 59.16 49.02 58.78 49.94 57.2 49.29 57.57 48.39 57.79 48.53 57.56 49.1"/>
    <path class="cls-2" d="m49.94,57.56c-.07-.16-.21-.28-.39-.3-.16-.02-.3.04-.44.1l-.42.18.68,1.57.28-.12-.25-.59.25-.1c.29-.13.42-.44.29-.74Zm-.46.53l-.18.08-.22-.51.18-.08c.08-.04.16-.06.24-.02.06.03.1.09.13.16.08.17.03.29-.15.37Z"/>
    <path class="cls-2" d="m51.16,56.31l-.29.19.43,1.75.27-.17-.12-.45.45-.27.35.3.28-.18-1.37-1.17Zm.22,1.06c-.03-.12-.06-.23-.09-.34-.03-.11-.06-.21-.09-.32.02.02.04.04.05.06.06.05.12.11.18.16.06.06.12.11.18.17.03.02.05.05.08.07l-.31.2Z"/>
    <polygon class="cls-2" points="52.74 55.55 52.4 55.81 52.24 55.6 53.19 54.87 53.32 55.1 52.99 55.36 53.87 56.51 53.62 56.7 52.74 55.55"/>
    <path class="cls-2" d="m55.43,54.46c-.1-.03-.28-.06-.39-.06.16-.19.1-.44-.06-.61-.24-.23-.53-.17-.75.05l-.37.38,1.22,1.2.22-.22-.52-.51s.05-.02.09-.02c.16,0,.33.04.49.08l.3.08.26-.26-.49-.11Zm-.73-.02l-.09.09-.36-.35.1-.09c.12-.13.26-.21.4-.07.05.05.09.12.09.19,0,.09-.08.17-.14.23Z"/>
    <polygon class="cls-2" points="44.14 58.72 44.16 59.15 44.68 59.13 44.69 59.39 44.18 59.41 44.2 59.91 44.87 59.88 44.88 60.15 43.89 60.19 43.82 58.48 44.79 58.44 44.76 58.7 44.14 58.72"/>
    <polygon class="cls-2" points="46.12 58.51 45.7 58.6 45.65 58.34 46.82 58.09 46.83 58.36 46.42 58.44 46.73 59.86 46.42 59.93 46.12 58.51"/>
    <path class="cls-1" d="m56.01,44.16c.04-.28-.01-.32-.04-.57-.03-.14-.02-.25.06-.43.02-.03.03-.06.05-.09.03-.05.06-.09.09-.14.2-.26.42-.58.36-.92-.07-.31-.23-.36-.42-.56-.11-.12-.09-.2-.06-.47.03-.28.03-.45-.16-.68-.06-.07-.13-.12-.2-.17-.2-.15-.38-.3-.45-.56-.04-.13-.04-.29-.03-.45.03-.34-.01-.59-.1-.8-.05-.12-.13-.23-.22-.32-.24-.23-.4-.22-.69-.26-.19-.04-.27-.11-.4-.24-.26-.24-.31-.24-.65-.22-.02,0-.03-.01-.05-.01-.12-.03-.19-.14-.26-.24-.15-.19-.17-.16-.41-.35-.09-.07-.18-.15-.24-.25-.04-.06-.07-.12-.1-.19-.04-.09-.08-.18-.11-.27-.02-.05-.04-.1-.07-.15-.16-.34-.37-.34-.69-.39-.15-.03-.28-.08-.34-.21-.07-.16-.08-.33-.09-.51-.01-.35-.22-.71-.58-.82-.16-.05-.32-.01-.54-.02-.44-.03-.7-.28-.78-.59-.02-.05-.03-.11-.03-.16-.04-.29-.01-.57-.17-.81-.04-.07-.1-.12-.17-.18-.26-.2-.5-.18-.72-.15-.09.01-.19.03-.31.02-.15,0-.16-.03-.37-.2-.08-.07-.16-.12-.26-.16-.14-.06-.29-.08-.44-.07-.65.03-.76-.17-1.06-.7-.07-.12-.14-.23-.27-.3-.18-.1-.4-.09-.6-.01-.28.11-.35.13-.64.03-.16-.06-.33-.1-.53.04-.33.22-.39.16-.75.12-.02,0-.04,0-.06,0-.22-.01-.43.09-.6.21-.29.2-.51.48-.81.68-.11.07-.21.12-.34.06-.23-.1-.39-.11-.57-.1-.12.01-.26.06-.41.09-.09.02-.23.03-.36.06-.38.08-.58.21-.72.59-.01.03-.02.07-.03.1-.08.2-.15.3-.36.32-.23.04-.45.12-.62.28-.14.13-.2.29-.27.45-.06.13-.17.15-.3.17-.3.05-.43.16-.47.47-.01.09-.02.19-.07.26-.06.08-.14.12-.23.14-.18.05-.37.14-.48.29-.21.27-.14.57-.22.87-.13.43-.44.73-.91.74-.2,0-.4-.04-.6-.04-.05,0-.1.01-.15.02-.15.04-.29.13-.37.27-.02.02-.03.05-.04.07-.16.38-.36.36-.73.37-.03,0-.07,0-.1,0-.11.02-.2.07-.27.12-.16.14-.26.43-.33.63-.04.1-.07.2-.15.27-.04.05-.15.1-.22.14-.2.09-.46.21-.55.41-.04.09-.05.19-.04.31.05.4.09.4-.14.74-.14.21-.09.38-.06.6.04.43,0,.5-.24.84-.05.05-.09.11-.13.17-.13.19-.24.42-.23.66.01.17.08.39.13.55.1.29.18.56.4.78.17.18.21.42.11.65-.02.04-.03.08-.04.12-.01.05-.01.09,0,.14.03.19.13.25.1.45-.02.07-.07.16-.1.22-.04.07-.08.14-.12.2-.08.13-.15.25-.22.37-.17.33-.21.81.05,1.1.12.14.3.23.47.3.21.09.6.19.75.36.02.02.04.05.05.07.16.28.3.28.55.41.06.03.12.06.17.1.06.05.11.11.15.19.08.13.14.28.22.41.08.13.18.24.32.32.2.13.56.14.8.12.14,0,.3-.04.44-.08.14-.03.28-.07.41-.12.18-.06.28-.09.43.06.11.11.22.17.39.15.06,0,.13-.03.19-.06.25-.14.38-.12.61.03.23.16.44.15.68.02.11-.05.21-.11.32-.17.15-.08.5-.25.59-.38.11-.16.17-.32.27-.49.08-.11.16-.16.3-.12.32.1.64.19.96.3.1.03.17.03.21.15.06.15.1.31.15.46.11.28.26.51.37.78.03.07.06.13.08.19.01.04.01.08.01.12.01.4.02.81.02,1.21,0,.24-.01.48-.02.71,0,.18.01.35-.02.53,0,.01,0,.02,0,.03-.1.25-.62.64-.83.83-.15.14-.34.35-.44.53-.1.16-.13.22-.32.28-.04.01-.08.02-.12.03-.17.06-.28.09-.45.15-.02.01-.05.03-.08.04h0s-.01,0-.02.02h-.01s-.01.02-.01.03c-.01.02-.01.04-.01.06-.01.02-.01.04-.01.05,0,.04,0,.08,0,.11,0,.27.09.46.28.63.07.06.16.12.25.14.09.01.07-.06.02-.11-.04-.05-.08-.1-.11-.16-.02-.03-.04-.06-.05-.09-.06-.13-.11-.29-.1-.43,0-.08.03-.15.07-.22.05-.07.14-.13.23-.12.02,0,.04.02.05.04.02.03.01.07,0,.09v.02h-.01s0,.05-.02.08c-.02.14-.01.29.05.43.05.1.14.18.22.26.03.03.07.06.1.09.09.09.17.18.26.27.03.04.11.1.15.07.05-.02.03-.11.02-.14h0c-.02-.06-.04-.12-.05-.17,0-.03-.01-.06-.01-.08v-.06c0-.1.13-.09.18-.04.12.12.19.28.29.42.02.02.03.05.05.07.02.03.04.06.07.1.03.03.06.06.09.09.03.02.11.08.14.06.04-.03-.01-.19-.03-.23-.03-.1-.06-.19-.08-.29-.01-.04-.02-.08-.03-.11-.01-.03-.01-.05-.01-.08-.01-.05-.03-.14.04-.17.06-.03.13.05.16.09.07.1.13.19.18.29.05.08.09.16.13.24.06.09.11.17.18.25.03.05.07.11.12.14.01.01.05.03.07.02.01-.01.01-.03.01-.04,0-.06-.03-.15-.04-.21-.03-.1-.07-.2-.1-.3-.04-.11-.07-.21-.1-.32-.02-.04-.03-.08-.04-.12-.04-.2.05-.31.19-.11.03.05.06.1.08.14.06.1.1.2.15.3.05.1.11.21.17.32.05.09.1.19.16.27.02.03.07.09.11.09h.02l.02-.02s.01-.08,0-.1c-.02-.08-.04-.15-.06-.23-.01-.05-.03-.11-.04-.16-.03-.09-.06-.18-.08-.27-.03-.1-.05-.21-.07-.32-.05-.48.32.14.37.22.04.08.08.16.12.23.06.11.13.22.19.33.04.07.08.14.13.2.03.04.07.09.1.12.02.01.05.04.07.03.04-.03.01-.14,0-.18-.04-.14-.09-.29-.14-.43-.04-.12-.08-.24-.12-.36-.02-.05-.03-.16.03-.19.07-.04.14.06.17.11.06.08.12.16.17.25.14.22.26.46.41.68.02.03.09.14.14.13.06-.01.07-.13.07-.21v-.17c.03-.17.16-.16.25-.04.03.05.06.11.09.16.03.07.08.16.12.21.03.03.09.08.12.04.1-.13-.07-.83.1-.85.06-.01.11.05.14.1.06.09.1.22.14.32.03.08.11.34.17.39.02.01.03.02.05.01.06-.01.07-.14.07-.18,0-.12,0-.25-.01-.38,0-.12-.01-.26,0-.38,0-.05.02-.18.09-.19.01-.01.03,0,.05,0,.09.04.12.17.14.25.04.14.06.29.09.44,0,.03.01.06.02.09,0,.08.08.32.2.31.09-.01.07-.33.06-.4-.08-.92.51-.93.37-.11,0,.05-.02.11-.03.16-.02.07-.04.15-.04.23,0,.02,0,.08.03.09.04.03.12-.05.15-.07.08-.09.14-.2.18-.31.04-.12.07-.24.13-.36.02-.05.07-.12.14-.11.05.01.08.07.09.12.01.07,0,.19-.01.26-.01.03-.01.06-.02.09,0,.02,0,.03-.01.04-.02.16-.02.42.17.17.09-.12.15-.26.22-.4.03-.05.09-.14.16-.13.08.02.09.1.09.17,0,.09-.05.22,0,.31,0,.03.05.03.08.01.15-.06.17-.29.31-.39.05-.03.11-.06.16-.03.06.03.04.12.03.17,0,.03-.03.1,0,.12.03.02.08-.01.1-.03.12-.08.25-.24.33-.36.01-.02.03-.03.04-.05.05-.08.06-.15.06-.24.01-.13-.03-.25-.08-.37-.01-.03-.03-.06-.04-.08-.01-.02-.02-.03-.03-.05-.02-.04-.05-.11-.04-.16.01-.07.07-.08.13-.06.06.02.14.07.19.12.06.05.1.13.12.2.01.03.02.06.03.09.01.04.01.07.02.11.02.16,0,.3-.05.45-.01.03-.03.09-.03.12s.01.04.04.03c.12-.02.21-.13.25-.24.03-.09.05-.2.06-.3v-.1s-.01-.11-.02-.16c0-.03-.01-.05-.02-.08v-.02s-.02-.04-.03-.07c0,0-.01,0-.01-.01,0,0,0,0-.01,0,0-.01-.01-.01-.01-.01,0-.01,0-.01,0-.02-.01-.01-.03-.01-.04-.02h-.01s-.03,0-.05-.02c-.16-.06-.32-.12-.49-.17-.09-.02-.17-.05-.26-.07-.14-.04-.16-.05-.26-.16-.03-.03-.05-.06-.08-.1-.02-.02-.05-.05-.07-.08-.05-.06-.11-.12-.16-.18-.02-.02-.04-.05-.06-.07-.05-.06-.07-.08-.13-.12l-.41-.33s-.05-.03-.07-.08c0,0-.01-.02-.01-.03-.01-.04-.01-.08-.02-.12,0-.11-.02-.21-.03-.31-.02-.18-.03-.37-.04-.55-.01-.32-.03-.65-.04-.97,0-.18,0-.36.01-.54,0-.13.01-.27.04-.4l.36-.64c.11-.21.23-.61.31-.85.06-.17.67-.58.85-.7.32-.24.48-.16.7.15.11.16.18.2.37.29.13.06.28.08.42.04.1-.03.26-.06.35.02.05.04.07.11.09.17.03.08.05.16.08.24.05.12.13.23.23.3.04.03.08.06.12.08.14.06.33.11.47.15.23.08.38.16.63.09.12-.04.22-.11.32-.2.04-.03.07-.06.11-.1.12-.12.17-.12.33-.14.04-.01.1-.01.14-.03.06-.01.11-.03.16-.06.1-.05.19-.09.28-.08.03,0,.06,0,.09.01.04.02.07.03.1.04.05.03.09.05.14.07.31.15.68-.01.88-.26.13-.17.19-.24.58-.19.23,0,.4-.1.54-.24.25-.28.28-.57.4-.91.06-.2.13-.35.39-.53.25-.17.48-.23.6-.41.02-.02.04-.05.05-.07.28-.46.04-.93-.18-1.36-.05-.11-.05-.23-.03-.42Zm-.76-3.48c.03-.07.1-.12.17-.16.08-.03.22-.06.3,0,.1.07.09.23.04.33-.11.21-.4.27-.5.02-.03-.06-.04-.12-.01-.19Zm.01.65c.24-.09.53-.08.54.24,0,.03.01.06.02.09.02.05.05.08.1.11.02.01.06.02.08.03.16.04.29.15.3.31.01.13-.07.26-.19.33-.05.03-.12.05-.18.08-.06.02-.13.06-.13.13s.04.13.04.2c.01.07,0,.14-.05.19-.14.15-.48.11-.63,0-.09-.07-.17-.13-.26-.2-.06-.05-.12-.09-.19-.12-.04-.02-.09-.03-.14-.04-.13-.02-.26,0-.4,0-.08,0-.23-.03-.24-.13-.02-.1.13-.16.2-.19.38-.12.78-.1,1.09.15.04.03.07.06.1.09.01.01.06.06.09.04.01-.02.01-.05,0-.06-.01-.04-.05-.09-.08-.12s-.06-.06-.09-.08c-.03-.02-.13-.09-.14-.12-.02-.07.32-.07.36-.07h.11s.07.01.1.01c.02-.01.07-.02.07-.05,0-.01-.02-.03-.04-.03-.07-.04-.23-.05-.32-.06h-.41s-.04-.01-.04-.02c-.01-.02,0-.04.02-.05.02-.03.05-.05.08-.08.03-.03.06-.05.1-.07.03-.02.05-.04.08-.06.02-.01.05-.04.04-.06,0-.02-.02-.03-.04-.03-.03,0-.06.01-.09.02-.03.02-.06.03-.09.05-.12.06-.23.13-.35.2-.15.1-.3.17-.47.23-.11.05-.34.08-.31-.19.01-.11.06-.24.21-.33.34-.21.62-.05.9-.19.08-.04.16-.1.25-.14Zm-1.02,4.56c.02.16,0,.33-.07.47-.06.1-.15.18-.25.19-.28.04-.33-.18-.42-.35-.09-.18-.3-.07-.45-.1-.13-.03-.23-.11-.26-.22-.05-.15,0-.33.01-.49.01-.12,0-.23-.05-.29-.13-.17.01-.59.27-.47.2.09.15.55.15.74,0,.14.05.16.08.12.04-.05.06-.1.07-.15.01-.11.04-.44.18-.26.12.17.2.47.25.64.08.29.19.31.14-.05-.02-.16-.08-.35-.09-.39-.01-.03-.03-.08-.05-.13-.06-.21.05-.26.18-.24.22.02.44.18.51.44.04.14-.05.29-.17.32-.07.02-.04.15-.03.22Zm-3.09-1.92c-.23-.07-.06-.47.3-.52.22-.03.4.08.3.32,0,.04-.04.08-.06.11-.1.17.06.16.14.08.02-.02.04-.05.06-.08.1-.14.42-.51.7-.58.08-.03.16-.02.23.03.1.07.07.27,0,.43-.04.08-.09.15-.14.21-.11.12-.21.18-.32.14-.02-.01-.04-.02-.06-.04-.07-.06-.12-.07-.25.07-.07.07-.16.16-.27.21-.35.18-.66.02-.62-.23.01-.05.05-.11.03-.14,0,0-.02-.01-.04-.01Zm-.97.4c-.08-.07-.25-.1-.35-.12-.03,0-.06,0-.09,0-.08-.01-.1-.04-.07-.09.04-.05.19-.19.19-.23,0-.03-.04-.05-.08-.03-.06.03-.11.07-.16.1-.12.09-.26.16-.41.18-.09,0-.12-.01-.09-.09.02-.05.16-.27.1-.31-.02-.02-.05-.01-.09.06-.09.14-.18.26-.32.35-.07.05-.15.08-.23.04-.05-.03-.06-.08-.02-.17.1-.23.38-.63.67-.63.19,0,.18.11.22.12.01.01.03.01.05.01.08,0,.17-.05.36-.08.13-.02.26,0,.33.07.05.04.08.1.09.16.01.05.01.09,0,.13,0,.02-.01.05,0,.07.02.02.04.03.06.04s.04.01.06.01c.35.08.63.45.35.75-.1.1-.24.15-.38.18-.05,0-.1.01-.15.01-.06,0-.13-.01-.19-.03-.07-.01-.14-.03-.21-.05-.05,0-.12-.02-.18-.03-.09,0-.12.06-.16.13-.06.11-.27.05-.36.02-.13-.05-.3-.15-.39-.26-.1-.13.01-.19.13-.22.18-.05.41-.08.6-.08.2,0,.37.03.55.08.01,0,.03.01.04.01.02.01.03.01.05.02h.05c.08,0,.08-.06.03-.11Zm-1.89-1.6c.07-.06.13-.12.21-.17.13-.1.28-.18.43-.25.08-.04.06-.12-.11-.07-.08.02-.16.05-.23.08-.08.03-.15.07-.22.11-.07.04-.14.08-.21.13-.06.04-.1.06-.09-.04,0-.09,0-.18-.03-.27,0-.02-.01-.06-.03-.08h-.01s-.06.08-.07.11c-.02.28-.13.58-.33.79-.02.02-.04.04-.07.06-.06.05-.19.1-.27.11-.06.01-.14.01-.19-.03-.2-.15.03-.44.17-.54.16-.12.18-.2.2-.31.05-.24.17-.58.43-.67.3-.11.41.09.57.18.07.03.13.01.24-.01.08-.01.16-.03.24-.04.14-.01.29,0,.41.1.06.05.12.12.15.19.08.15.08.32-.09.4-.04.02-.18.1-.21.13-.03.05,0,.12.02.17.02.08-.02.15-.09.2-.13.09-.32.12-.48.12-.09,0-.18,0-.28-.02-.22-.05-.26-.19-.06-.38Zm.01.92c-.03.1-.17.15-.26.16-.15.02-.3-.03-.32-.2-.02-.08,0-.17.06-.23.09-.09.25-.09.37-.03.1.06.19.19.15.3Zm-4.61-3.86s.02-.04.04-.06c.04-.05-.13-.1-.17-.11-.06-.03-.12-.06-.17-.09-.14-.1-.22-.25-.18-.42.05-.18.22-.28.4-.29.04,0,.08,0,.11-.01.04,0,.08-.01.1-.03.01-.02.02-.05.02-.07.02-.04.03-.07.05-.11.11-.2.33-.23.53-.15.14.06.25.19.34.31.06.07.11.15.18.21.04.04.1.1.16.1.03,0,.06-.01.09-.02.17-.09.39.18.46.3.02.04.04.07.06.11.02.07.06.18.01.24-.09.1-.31,0-.4-.04-.2-.1-.37-.23-.54-.36-.14-.09-.23-.2-.34-.32-.02-.02-.13-.13-.17-.1-.01,0-.01.05,0,.06.01.04.04.08.07.11.03.03.05.06.07.09.02.03.04.05.06.08.02.04.03.06-.02.07-.15-.02-.3-.03-.45-.03h-.1s-.13,0-.13.05.15.06.18.07c.21.02.42.04.62.1.02.01.05.02.06.03.05.02.1.07.02.1-.13.02-.24.07-.36.13-.03.02-.17.12-.15.16.02.03.09,0,.11,0,.1-.03.2-.08.3-.11.29-.1.65-.07.84.19.04.05.06.12.01.17h-.02c-.06.04-.19.01-.25-.01h-.03c-.18-.03-.3-.03-.47.05-.19.07-.36.13-.57.09-.23-.04-.48-.24-.37-.49Zm.3,1.47s-.02.11-.04.16c-.01.02-.01.05-.02.07-.09.27-.21.44-.37.07-.07-.17-.16-.55-.07-.73.07-.12.21-.21.35-.21.09,0,.14.06.17.14.06.15.02.35-.02.5Zm-1.85-.18c-.15-.09-.29-.38-.38-.39-.03-.01-.07,0-.11,0-.14.03-.22-.02-.27-.08-.04-.04-.25-.41-.07-.45.11-.03.23-.01.34.01.08.02.14.05.21.09.14.09.17.16.25.3.06.13.16.3.21.28.02-.01.01-.07,0-.08-.03-.15-.11-.27-.14-.42-.01-.01-.01-.03,0-.04.02-.01.13.03.15.05.13.05.26.11.39.17.02.01.15.06.17.03.03-.04-.1-.11-.12-.12-.12-.07-.23-.15-.35-.22-.05-.03-.01-.06.01-.07.05-.02.11-.03.16-.05.02-.01.17-.07.17-.09-.01-.04-.06-.04-.12-.03-.21.05-.33.09-.57.08-.06,0-.12-.01-.18-.03-.08-.02-.17-.04-.25-.04-.11-.02-.22-.02-.33-.02h-.04c-.08,0-.28,0-.18-.14.1-.11.3-.21.43-.26.14-.05.5-.14.61.01.04.06.06.07.14.09.1.03.26,0,.36-.01.16-.01.37.02.45.17.04.09.03.18-.01.26,0,.04,0,.09.01.14.02.04.1.09.14.12.05.04.08.09.09.15,0,.09-.03.19-.09.26-.08.08-.18.12-.29.11-.1,0-.16.01-.22.09-.01.02-.03.04-.04.06-.1.18-.38.15-.53.07Zm.08,1.77c-.05.25-.2.31-.36.11-.16-.18-.28-.54-.34-.74-.03-.13-.06-.27-.08-.41-.02-.17-.04-.49.16-.56.1-.03.2.03.27.1.31.31.34.67.37,1.09,0,.1.02.27-.02.41Zm-2.12-1.04s.02.08.03.12c.05.24-.08.37-.32.4-.1.01-.21-.04-.31-.03-.08.01-.14.06-.18.12-.07.08-.15.15-.25.18-.2.06-.55.04-.73-.05-.13-.06-.07-.13.02-.19.14-.09.38-.08.55-.06h.07s.11.01.11-.03c0,0-.02-.03-.04-.03-.08-.04-.17-.07-.26-.12-.07-.03-.02-.07.03-.1.27-.16.6-.07.89-.03.02.01.06.01.07-.01,0-.01-.01-.03-.02-.04-.03-.03-.12-.07-.16-.08-.05-.03-.11-.05-.16-.07,0-.01-.03-.02-.03-.03-.01-.03.05-.08.07-.1.07-.07.14-.14.2-.22.02-.03.04-.06.05-.09.01-.02.05-.08.03-.1-.03-.03-.14.07-.16.09-.07.07-.14.14-.21.2-.1.08-.23.13-.35.06-.05-.04-.11-.13-.12-.19-.02-.11-.01-.23.01-.33.03-.13.08-.25.18-.33.02-.02.04-.03.06-.04.06-.03.15-.04.21,0,.05.04.1.13.17.13.04,0,.08-.02.11-.04.06-.03.14-.07.21-.07.03-.01.06,0,.09.01.08.02.15.09.2.15.06.07.09.15.1.24.01.1-.01.21-.08.29-.14.13-.14.22-.08.39Zm-2.09.35c.02.09-.03.21-.09.27-.05.05-.1.08-.16.11-.06.02-.12.04-.18.06-.05.01-.1.02-.16.03-.04,0-.08,0-.12.02-.06.01-.11.03-.16.06-.14.06-.27.17-.43.16-.06,0-.11-.02-.13-.08-.01-.06.03-.13.08-.18.07-.07.19-.16.23-.19.19-.11.45-.14.65-.17.03,0,.11-.02.1-.06-.02-.1-.29-.07-.36-.06-.19.02-.11-.09,0-.22.19-.24.43-.53.57-.77.03-.06.05-.13.02-.15-.02-.02-.1.06-.12.08-.12.13-.29.35-.39.47-.08.1-.12.05-.11-.04.01-.14,0-.28-.03-.42,0-.02-.03-.12-.06-.12-.04,0-.05.11-.05.14.01.21-.03.56-.12.75-.02.06-.04.09-.11.19-.14.23-.35.49-.5.56-.05.02-.11.03-.15,0-.07-.04-.07-.15-.06-.22.01-.11.06-.22.11-.32.04-.05.08-.11.13-.15.04-.04.08-.07.11-.11.07-.09.09-.18.1-.29,0-.1-.01-.19,0-.28,0-.21.06-.45.2-.6.12-.12.39-.22.53-.1.02.02.04.03.07.04.1.02.24-.03.33-.13.11-.09.27-.13.4-.08.23.09.42.41.25.63-.17.17-.01.28.09.42.03.04.05.08.05.13.01.17-.17.3-.31.36-.17.06-.26.05-.22.26Zm-2.15-1.32c-.1.08-.21.23-.24.28-.01.02-.05.05-.07.05-.04.01-.05-.1-.06-.13-.01-.04-.01-.08-.01-.12-.04-.37.03-.63.07-.99,0-.03,0-.06-.01-.06-.02,0-.07.06-.08.08-.08.2-.11.37-.14.58,0,.01,0,.02,0,.02-.04.02-.17-.16-.24-.2-.02-.01-.03-.01-.03-.01-.03.02.03.12.04.14.04.07.1.14.14.21.04.08.07.15.08.24.01.08.02.14.03.23.03.11.07.21.09.32.02.07.03.19-.05.23-.02.01-.05.01-.08.01-.23-.04-.37-.41-.38-.67,0-.1-.01-.2-.08-.28-.11-.14-.38-.68-.06-.86.05-.03.11-.02.19.03.08.05.13-.17.13-.23.01-.14.08-.25.18-.32.11-.07.24-.1.36-.1.1,0,.21.03.3.08.1.05.19.18.23.29.06.15.05.31-.03.45-.06.1-.15.23-.05.31.03.02.07.03.1.04.08.01.14.04.18.1.06.09.05.21-.01.3-.01.03-.03.08-.06.13-.04.08-.07.17-.11.24-.19.35-.2.59-.23.78-.04.22-.19.32-.28.18-.03-.05-.05-.17-.06-.31-.02-.42.18-.75.28-.92.02-.05.11-.15.09-.18-.01-.01-.03-.02-.12.06Zm-1.56,1.13c.02.12.07.3.04.41-.02.06-.12-.03-.15-.05-.15-.13-.25-.27-.36-.44-.02-.02-.12-.19-.17-.17-.03.02,0,.13.01.16.01.02.02.04.03.07.23.41.46.71.89.94.18.1.04.17-.07.24-.01,0-.02,0-.03.02-.07.04-.13.09-.18.15-.01.01-.03.03-.03.05.02.02.12-.03.14-.04.17-.08.59-.24.77-.13.14.09.06.26-.03.35-.18.18-.6.14-.83.1-.05-.01-.11-.03-.16-.05-.11-.04-.21-.1-.26-.22-.03-.1,0-.22-.03-.33-.02-.06-.06-.11-.12-.15-.12-.09-.3-.08-.44-.14-.13-.06-.25-.16-.16-.31.01-.03.04-.06.07-.08.09-.07.17-.16.06-.25-.05-.05-.1-.09-.15-.13-.13-.14-.2-.21-.17-.42.04-.24.24-.41.47-.48.08-.02.16-.03.24-.01.1.02.17.06.23.14.04.06.07.11.13.16.03.02.06.04.1.03.03,0,.06-.02.09-.04.03-.02.07-.04.11-.05.02-.01.04-.01.06-.01.09,0,.17.09.23.15.15.18.22.44.28.66.04.14.1.3.21.39.02.02.03.03.05.04.11.08.2.12.27.24.03.05.05.11.03.16-.05.1-.21.07-.29.06-.02-.01-.06-.01-.08-.02-.14-.05-.28-.12-.39-.21-.1-.07-.18-.15-.2-.27-.02-.07-.02-.14-.03-.21,0-.1-.02-.19-.05-.28-.01-.03-.08-.16-.11-.14-.03.01-.02.09-.02.11Zm-2.82,1.63c-.01-.07.02-.12.08-.16,0-.02.03-.03.06-.04.1-.06.24-.06.36-.03.1.02.17.03.26.09.05.03.14.1.15.16.03.14-.07.24-.18.3-.08.04-.16.08-.25.11-.03.01-.18.07-.16.11.01.04.17,0,.2,0,.09-.02.18-.05.27-.09.02-.02.09-.05.11-.03.02.01.02.03.02.04v.18s.01.14.02.18c.01.01.02.03.03.03.02,0,.04-.04.04-.05.05-.24.09-.52.24-.71.09-.11.21-.2.23-.03v.04c0,.42.13.08.15-.03t.01-.02s.04-.09.06-.13c.04-.08.09-.15.15-.2.09-.06.17-.08.18.06.01.2-.09.53-.22.69-.07.08-.15.13-.25.15-.07.02-.13.06-.17.12-.05.09-.04.21-.09.31-.04.07-.1.15-.18.18-.11.05-.22,0-.3-.06-.03-.03-.07-.05-.1-.08-.13-.12-.21-.16-.38-.09-.16.08-.4-.08-.47-.23-.05-.1-.1-.22-.05-.33.03-.06.1-.12.15-.16.03-.03.05-.06.07-.09.02-.06-.02-.13-.04-.19Zm3.05-5s-.02-.01-.04-.01c-.13-.07-.2-.28-.13-.41.12-.21.29-.21.44-.02.08.1.07.3-.02.39-.07.07-.16.07-.25.05Zm3.87-.63c.03.11.03.19.03.3-.01.08-.02.15-.02.23.01.08.02.15.05.21.02.03.03.06.05.09.02.04.04.08.06.12.02.05.03.11.03.16,0,.06-.03.12-.09.14-.13.03-.24-.06-.3-.18-.04-.08-.09-.18-.12-.27-.01-.07-.02-.15-.02-.22v-.26s0-.07-.02-.07c-.03,0-.06.09-.07.11-.01.05-.04.2-.08.22s-.1-.03-.13-.05c-.02-.02-.03-.04-.06-.05-.04-.03-.09-.06-.13-.08-.03-.01-.14-.06-.16-.03-.02.03.08.13.1.15.19.17.58.62.66.86.03.08-.03.08-.09.09l-.23.02s-.1.01-.1.04c-.01.05.13.07.16.07.15.03.29.05.43.11.03.01.07.03.1.05.13.08.18.17.01.24-.14.06-.29.07-.44.03-.16-.03-.32-.12-.44-.23-.08-.07-.18-.2-.14-.31,0-.02.01-.03.02-.04.04-.07.12-.15.1-.24-.01-.06-.06-.08-.11-.1-.14-.03-.3-.1-.39-.23-.17-.23-.04-.57.08-.8.06-.12.15-.23.27-.29.07-.04.16-.06.24-.03.05.03.08.08.12.11.08.04.19.02.26-.03.15-.11.32-.01.37.16Zm-.01-.92c.02-.14.1-.32.19-.43.07-.1.17-.21.28-.25.05-.03.12-.05.16,0,.01.01.03.03.05.04.09.07.16.01.23-.06.22-.25.57-.3.83-.07.16.14.28.39.14.59-.07.1-.17.14-.29.15-.13,0-.26,0-.29-.16,0-.04-.03-.19-.07-.2-.05-.02-.15.14-.17.18-.09.13-.26.44-.43.47-.18.03-.11-.18-.14-.27-.03-.11-.09.02-.11.06-.01.02-.02.05-.03.07-.05.08-.15.17-.25.13-.1-.04-.12-.16-.1-.25Zm-1.37,2.49c.12.13.13.3.05.45-.26.18-.51.07-.54-.24-.01-.12.01-.26.14-.32.12-.05.27.02.35.11Zm3.01.59c-.02-.12-.02-.25-.03-.3-.02-.43.06-.68.28-1.05.01-.03.09-.16.06-.18-.03-.03-.13.08-.15.1-.13.14-.2.31-.3.47h-.01s-.07-.11-.08-.14c-.1-.38-.03-.69-.08-1.04,0-.03-.01-.07-.03-.07-.03,0-.06.05-.07.11-.05.18-.03.42-.03.61,0,.02.01.12-.02.13,0,.01-.04,0-.05-.02-.07-.05-.13-.1-.2-.15-.05-.05-.16-.13-.23-.15-.01,0-.04-.01-.06,0-.04.05.12.17.15.2.4.34.47.63.6,1.11.03.1.05.22.06.33.01.07-.01.12-.09.13-.29.03-.76-.44-.72-.68.03-.16.21-.25.11-.43-.03-.06-.08-.12-.12-.17-.05-.08-.1-.15-.14-.23-.04-.06-.07-.12-.09-.18-.05-.13-.05-.28.07-.37.16-.13.25.07.3-.19.01-.02.01-.04.02-.06.18-.55.48-.63.72-.46.13.09.22.21.29.41.03.08.09.16.18.13.18-.04.34-.01.33.27-.01.16-.07.36-.11.45-.05.09-.08.18-.06.24.01.03.04.05.07.06.08.04.14.1.16.18.03.11.02.19-.01.28-.06.16-.22.25-.32.41-.03.06-.06.13-.08.2-.09.21-.25.43-.32.04Zm2.14-6.74c-.1-.12-.13-.27-.05-.41.02-.04.05-.08.09-.11.18-.17.42-.14.62-.01.05.03.09.07.14.1.05.03.15.11.2.08.05-.03.13-.09.18-.1.08-.01.16.05.21.08.14.09.27.25.32.4.04.13.04.28.04.42.01.05,0,.19.02.23.01.02.03.03.04.04.02.02.05.03.07.05.13.08.14.29.13.42-.01.11-.05.25-.13.34-.03.03-.07.07-.12.07-.09-.01-.14-.12-.17-.19-.08-.24-.18-.47-.23-.72-.03-.11-.04-.22-.05-.32,0-.05-.02-.21-.08-.21s-.07.15-.06.19v.11s-.03.06-.07.03c-.07-.04-.14-.14-.19-.2s-.1-.12-.15-.17c-.04-.04-.23-.21-.28-.16h0s.08.16.1.19c.1.11.2.22.29.33.03.05.07.1.1.14.02.02.03.04.05.06.01.02.05.07.03.09-.02.03-.13-.03-.16-.04-.1-.05-.34-.14-.45-.1-.01.01-.04.02-.04.03,0,.03.1.07.12.08.42.16.74.36.94.77.03.08.05.16.07.24.02.06.01.14-.05.18-.03.03-.07.03-.11.02-.06-.01-.11-.05-.15-.09-.03-.04-.07-.08-.1-.12-.07-.07-.13-.11-.22-.14-.03-.01-.05-.01-.07-.02-.14-.03-.34-.12-.32-.29,0-.07,0-.17-.05-.22-.03-.02-.08-.04-.12-.04-.07-.02-.13-.03-.19-.05-.09-.03-.2-.09-.26-.17-.1-.15,0-.38.17-.45.03-.01.05-.02.07-.05.03-.11-.07-.23-.13-.31Zm2.39,2.4s0,.07.03.11c.05.13.11.14.17.12.33-.05.48.25.48.57-.01.38-.23.51-.3.8-.03.14.01.32.04.46.02.05.01.12-.01.17-.02.03-.05.05-.07.06-.22.11-.41-.3-.44-.46-.03-.15-.06-.32-.01-.46.05-.13.14-.22.22-.34.01-.01.07-.1.05-.12-.04-.03-.25.14-.28.16-.02.03-.09.09-.13.08-.03-.01-.04-.04-.04-.06-.06-.23-.07-.48-.07-.71v-.08s-.02-.08-.06-.07c-.03,0-.05.07-.05.1-.02.11-.03.22-.03.33,0,.02-.01.05,0,.07v.12s0,.06-.02.07c-.06.05-.39-.29-.43-.2,0,.03.07.11.08.12.03.03.06.06.09.09.16.14.26.22.35.42.01.04.08.29.05.31-.01,0-.04,0-.05-.01-.03-.01-.06-.02-.09-.04-.11-.03-.21-.06-.33-.07-.01,0-.06,0-.06.02-.01.02.04.04.05.05.01,0,.02.01.03.01.13.07.27.13.4.21.09.06.17.14.22.24.03.05.08.16.03.21-.03.03-.07.03-.1.03-.15-.01-.39-.16-.52-.25-.13-.09-.28-.2-.36-.36-.03-.03-.04-.08-.06-.12-.03-.11-.04-.23.06-.3.02-.01.04-.02.05-.04.08-.08.04-.15-.01-.22-.08-.13-.19-.25-.22-.4-.07-.27.2-.34.26-.34.11,0,.14-.03.17-.12.03-.11.07-.22.13-.32.24-.39.66-.38.78.16Zm-.24-1.98c.02-.09.1-.24.21-.25.13-.02.24.11.28.22.04.12,0,.29-.1.36-.08.05-.16.04-.24.01-.06-.03-.11-.07-.14-.13-.03-.07-.03-.14-.01-.21Zm-1.46,5.13c.1.24-.16.37-.38.31-.11-.04-.22-.07-.34-.07-.11,0-.23.04-.35.06-.06,0-.14,0-.18-.05-.04-.05,0-.13.03-.16.15-.13.3-.14.49-.17.06-.01.12-.02.17-.03.03,0,.11-.02.1-.06,0-.04-.09-.05-.12-.05-.08,0-.16,0-.24.01-.02,0-.03,0-.05.01-.04,0-.14.01-.16-.04-.02-.06.09-.16.14-.19.07-.05.14-.1.22-.14.12-.05.24-.1.35-.14.04-.01.16-.06.15-.11,0-.05-.12-.05-.16-.05-.06,0-.3.1-.35.08,0,0-.01,0,0-.02,0-.07.03-.2.02-.27-.01-.04-.02-.07-.06-.07-.02,0-.03.02-.04.07-.06.21-.07.39-.29.56-.09.08-.17.15-.25.25-.11.12-.2.27-.31.39-.03.03-.1.09-.14.08-.19-.03-.07-.62-.02-.74.04-.07.09-.17.19-.17.03,0,.07.01.11.02.01,0,.02,0,.03.01.05,0,.09-.01.13-.04.06-.05.11-.16.14-.23.03-.08.05-.15.08-.23.04-.14.14-.25.27-.31.13-.06.26-.08.38,0,.03.03.06.06.09.09.02.02.04.06.07.07.03.02.07.03.11.03.07.01.15,0,.22.01.1.02.17.08.24.15.03.04.06.09.08.14.07.22-.04.42-.21.55-.09.07-.22.18-.21.31,0,.04.03.09.05.13Zm-.06-2.41s.05.07.06.1c.01.04.01.08.01.12-.02.07-.05.13-.09.18-.14.16-.39.22-.61.2h-.04c-.17-.02-.31-.05-.45.04-.06.04-.11.1-.16.15-.08.09-.15.13-.27.16,0,0-.03.01-.05.01-.06,0-.11-.02-.12-.09-.01-.13.08-.24.16-.33.23-.23.37-.25.7-.27.05-.01.09-.01.13-.02.02,0,.12-.01.12-.03s-.04-.03-.05-.04c-.1-.02-.2-.04-.3-.04-.02,0-.07,0-.08-.03-.02-.03.04-.09.05-.11.06-.07.13-.13.21-.2.05-.04.11-.09.17-.13.04-.04.08-.07.12-.1,0-.01.1-.1.08-.12-.03-.04-.21.05-.25.07-.01.01-.02.02-.04.03-.1.07-.21.14-.31.22-.02.01-.04.03-.05.04-.02.01-.07.06-.09.05-.01,0-.01-.04,0-.05,0-.03.01-.06.01-.08.02-.06.03-.12.05-.17.01-.02.06-.17.03-.19-.01-.01-.04.01-.05.02-.03.03-.06.06-.08.09-.01.02-.02.04-.03.06l-.15.36c-.04.08-.09.17-.13.25-.05.09-.11.18-.17.27-.02.04-.05.08-.08.13-.03.04-.18.26-.25.16-.07-.11-.05-.64.06-.92.07-.15.14-.19.28-.26.04-.02.07-.04.1-.07.14-.12.15-.29.24-.43.07-.11.17-.18.3-.2.09-.01.21.01.29.08.03.02.04.05.07.07.05.03.1.05.15.04.03-.01.06-.02.09-.03.13-.04.28-.04.4.06.13.12.15.31.09.45-.03.06-.07.12-.1.18-.07.14-.08.19.03.32Zm-.76-1.66c-.06.09-.26.08-.35.05-.09-.02-.18-.07-.25-.12-.04-.03-.13-.12-.19-.08-.03.04.04.16.06.19.04.06.05.13.02.19-.04.11-.18.18-.29.17-.06,0-.13-.03-.17-.08-.17-.19.1-.89.24-1.07.13-.16.3-.1.45,0,.07.05.14.1.2.16.14.13.41.38.28.59Zm-1.22.67c.08.09.04.24-.02.32-.14.17-.42.2-.47-.06-.02-.06-.01-.12.03-.17.04-.06.1-.1.17-.12.08-.03.23-.04.29.03Zm-.11,4.79c.17,0,.33.1.36.28.02.19-.11.33-.28.38-.04.01-.09.01-.13,0-.11-.05-.17-.19-.18-.31-.01-.16.05-.32.23-.35Zm8.53-3.26s-.12-.1-.17-.13c-.05-.04-.11-.08-.16-.12-.01-.01-.03-.02-.03-.04,0-.03.07-.08.09-.09.09-.06.17-.12.25-.2.02-.03.14-.16.11-.2-.04-.05-.15.03-.18.05-.08.07-.17.12-.25.17-.12.07-.23.1-.35-.01-.11-.11-.07-.42-.03-.56.06-.17.28-.52.48-.32.05.06.09.14.16.16.05.01.09,0,.13-.01.07-.02.16-.05.24-.04.14.02.22.15.29.26.1.16.11.48-.05.59-.07.04-.11.08-.13.13-.09.16.03.2.05.36v.08c0,.23-.23.33-.47.32-.11,0-.22-.03-.34-.04-.2-.01-.31.42-1.02.07-.06-.03-.2-.11-.18-.2,0-.07.12-.1.18-.1.11-.01.23.03.34.06.02,0,.05.02.07.03.02,0,.08.02.09-.01.01-.02,0-.05-.01-.07-.01-.03-.05-.06-.08-.08-.04-.02-.07-.05-.1-.08-.07-.06-.02-.09.03-.11.32-.12.68.06.98.18,0,0,.06.02.07,0,.01-.02,0-.04,0-.05Zm2.8,1.72s.1.02.16.03c.15.04.31.12.42.24.09.09.16.22.16.36-.01.18-.12.32-.27.41-.14.08-.28.11-.43.13-.07.01-.22.01-.25.08-.02.03-.02.07-.02.11.02.16-.15.23-.27.26-.25.06-.8-.15-.98-.33-.05-.05-.1-.1-.07-.17.04-.09.17-.1.25-.08.14.03.29.11.45.15.06.01.1.01.11-.01.03-.1-.33-.23-.38-.26-.09-.05-.14-.11-.07-.17.08-.08.35-.11.41-.12.3-.04.57-.06.88-.03.01,0,.03,0,.04.01.13.02.1-.07.02-.11-.22-.11-.64-.07-.81-.06-.01,0-.02,0-.03-.01-.06-.07.13-.26.16-.33,0,0,.01-.04,0-.05-.01-.02-.03-.03-.05-.02-.07.02-.23.23-.3.29-.16.13-.33.2-.52.27-.86.36-.87-.19-.09-.42.05,0,.1-.04.15-.07.06-.04.1-.09.15-.14.07-.09.13-.16.2-.22.13-.11.27-.2.49-.22.13-.01.3.04.38.15.05.07.05.17.02.25-.02.05.05.07.09.08Zm1.29,3.82c-.06.08-.23.29-.34.15-.09-.12-.03-.26.04-.37.09-.15.23-.34.29-.51.01-.04.02-.08,0-.09-.04-.02-.12.07-.14.1-.03.04-.05.07-.08.11-.03.04-.07.12-.11.15-.07.04-.08-.04-.08-.08-.02-.15-.03-.31-.05-.46-.03-.16-.07-.32-.12-.47-.02-.04-.09-.19-.14-.17-.03.01-.02.08-.02.11.05.21.11.44.11.66,0,.09-.08.05-.12.02-.12-.09-.23-.18-.35-.24-.02,0-.11-.06-.13-.03-.01.02.03.06.04.07.02.02.04.04.06.06.15.12.3.26.4.42.11.19.22.49.15.7-.01.06-.04.1-.08.11-.06.01-.14-.06-.17-.1-.08-.13-.12-.27-.17-.41-.07-.18-.17-.33-.33-.45-.11-.08-.23-.19-.29-.32-.04-.09-.06-.19-.02-.29.04-.12.17-.22.3-.22.03,0,.14.02.15-.04.01-.04,0-.11-.03-.15-.09-.36.14-.69.52-.66.38.02.51.47.55.83.02.11.11.14.18.13.2-.02.27.06.3.19.09.44-.04.91-.32,1.25Zm-2-1.39c-.12.1-.28.14-.39.02-.23-.33.15-.66.46-.41.03.02.05.06.06.1.03.11-.05.23-.13.29Zm-1.23-1.2c.08.08.07.22.06.32,0,.05.04.09.08.12.04.04.08.08.12.12.09.09.16.2.19.33.03.19-.06.4-.22.51-.15.09-.32.06-.47,0-.03-.01-.07-.02-.1-.03-.1-.02-.16,0-.22.07-.13.16-.31.14-.48.05-.04-.02-.08-.04-.12-.07-.1-.08-.16-.16-.24-.27-.07-.09-.15-.18-.25-.25-.06-.04-.13-.07-.2-.1-.06-.03-.13-.05-.2-.08-.07-.04-.22-.14-.18-.25.07-.16.33-.07.46-.05.4.09.5.15.68.43.03.05.15.29.21.29.06-.01-.05-.27-.07-.33,0-.03-.04-.13-.01-.16.03-.03.13.02.16.03.1.05.21.09.31.13.04.01.32.14.34.08,0-.05-.22-.17-.25-.19-.06-.03-.13-.06-.19-.09-.01,0-.04-.01-.06-.02-.06-.04-.12-.08-.01-.13.04-.02.08-.05.11-.07.03-.02.18-.11.16-.15-.02-.03-.17.04-.2.06-.17.07-.26.13-.46.12-.07-.01-.13-.03-.19-.05-.07-.03-.1-.06-.02-.15.04-.05.07-.09.11-.15.06-.08.11-.17.09-.19-.04-.02-.18.12-.21.15-.06.04-.11.1-.18.14-.11.07-.3.1-.43.09-.04-.01-.08,0-.11-.01-.06-.02-.09-.04-.09-.11.01-.1.19-.19.27-.23.06-.03.12-.05.17-.09.23-.14.45-.38.73-.2.06.04.11.1.16.15.06.08.13.13.23.13.14,0,.42-.01.52.1Zm-3.04-1.61c-.08.08-.16.18-.24.29,0,.02-.06.08-.09.08-.04-.01-.03-.18-.03-.21.01-.22.03-.38.02-.6,0-.18-.01-.31-.08-.32-.04,0-.05.09-.07.34,0,.03,0,.07,0,.11,0,.08-.01.15-.01.22-.01.08-.02.16-.04.23,0,.03-.02.11-.06.11-.03-.01-.08-.08-.11-.11-.07-.1-.14-.19-.25-.24-.02-.01-.07-.03-.09,0-.03.03.05.14.07.16.04.03.08.08.11.12.15.2.21.43.2.68,0,.05,0,.1,0,.14,0,.05-.01.09-.02.13-.01.07-.05.14-.1.19-.04.03-.09.06-.15.05-.12-.03-.13-.21-.12-.31.01-.04.01-.09.01-.14.02-.22-.02-.37-.15-.54-.02-.03-.04-.07-.06-.1-.21-.26-.45-.77.05-.92.04,0,.08-.02.12-.02h.12c.08-.01.12-.09.15-.16.03-.07.06-.14.1-.21.07-.12.2-.22.34-.23.2-.01.32.14.36.31.01.04.02.07.03.1.03.06.06.08.12.1.03.02.07.02.1.02.05,0,.1.01.13.03.25.13.18.52.06.71-.07.12-.17.22-.18.35-.01.07,0,.13.01.2.08.33-.32.48-.49.69-.05.05-.1.1-.15.12-.04.02-.09.03-.13.01-.05-.04-.03-.15-.01-.2.01-.02.01-.05.02-.07.07-.19.17-.34.28-.51.11-.16.22-.31.31-.49,0-.02.07-.15.04-.17-.03-.01-.08.05-.1.06Zm.21,1.24c.07-.04.16-.04.23-.03.09.02.22.08.25.18.04.12-.07.24-.17.29-.21.1-.48-.03-.41-.29.01-.06.04-.12.1-.15Zm.39-.45c-.03-.25.14-.45.3-.63.02-.03.05-.06.07-.09.03-.04.04-.09.06-.2.03-.14.16-.26.31-.29.04-.01.09-.02.13-.02.06.01.11.03.15.05.03.01.05.03.08.04.04.02.08.01.12,0,.03-.01.06-.03.09-.04.24-.11.52-.18.74.01.06.05.1.11.11.19.03.16-.05.26-.17.37-.01.02-.03.03-.04.05-.13.13.03.15.07.26,0,.04.02.08,0,.13-.04.14-.22.23-.37.21-.11-.02-.2-.05-.29-.06-.25-.02-.47.14-.54.04-.03-.04-.01-.08.02-.12.13-.24.4-.37.62-.52.03-.02.1-.09.08-.13-.01-.02-.03-.02-.05-.02-.19.01-.41.2-.57.3-.02.01-.04.02-.06.03-.13.09-.03-.3-.05-.37-.01-.02-.03-.02-.04-.03-.03,0-.07.12-.08.14-.02.06-.03.11-.04.16-.05.24-.06.54-.29.69-.05.04-.1.06-.16.06-.04-.01-.09-.01-.12-.03-.06-.04-.09-.1-.09-.18Zm.33-3.01s-.07.04-.11.06c-.02.01-.05.02-.07.04-.18.1-.05.16.03.26.01.02.02.03.02.05.01.04.01.08,0,.12-.06.2-.4.29-.58.27-.16-.02-.31-.08-.46-.13-.12-.05-.24-.09-.36-.11-.09-.01-.18-.01-.26-.01s-.27.01-.33-.03c-.06-.03-.07-.08-.04-.13.04-.06.15-.14.22-.16.09-.04.2-.05.3-.06.19-.01.43.02.6.1.05.02.11.06.16.09.03.02.14.09.17.05.01-.02-.01-.06-.02-.07s-.01-.01-.01-.02c-.09-.09-.22-.18-.34-.23-.04-.01-.12-.05-.14-.09h-.01c0-.06.16-.11.2-.13.1-.03.2-.05.31-.06.09-.02.18-.03.27-.04.02,0,.08-.02.08-.05-.01-.03-.07-.05-.09-.05-.27-.07-.54.02-.79.11-.05.01-.1.03-.16.04-.02,0-.08,0-.1,0-.05-.02.03-.11.05-.13.08-.1.16-.19.27-.27.02-.02.09-.07.07-.11-.01-.02-.04-.02-.06-.02-.04.01-.08.03-.11.05-.15.1-.27.21-.4.35-.06.07-.12.15-.2.22-.06.05-.13.11-.21.15-.07.05-.16.09-.24.09-.13,0-.18-.11-.19-.22-.05-.3.6-.94.76-.71.01.02.02.03.04.03.02,0,.03,0,.04,0,.03,0,.05,0,.08-.02.04-.02.05-.03.08-.06.19-.16.44-.39.69-.41.09-.01.2.02.26.1.04.06.05.13.03.2-.03.1.11.11.17.1.1,0,.2.01.29.05.18.08.33.26.31.47-.01.13-.1.24-.22.3Zm-2.47.86c.09-.06.25-.09.33,0,.07.07.05.22.02.3-.03.06-.07.12-.12.15-.07.04-.13.04-.2.02-.26-.06-.22-.34-.03-.47Zm0,4.98c.21.08.32.13.24.37-.05.15-.19.41-.31.5-.06.05-.11.12-.19.1-.11-.04-.12-.2-.12-.3s.01-.2.01-.31c0-.02,0-.04.01-.06.02-.22.12-.4.36-.3Zm-.43,1.39c.06-.03.14-.07.21-.07.11-.01.24.07.32.13.21.14.37.38.13.59-.04.04-.12.07-.17.08-.12.03-.27.02-.27-.13,0-.04.02-.09.03-.12.02-.1-.08-.12-.14-.05-.04.05-.06.19-.13.21-.04.01-.09-.02-.12-.05-.09-.07-.15-.16-.21-.25-.01-.01-.02-.02-.02-.03l-.02-.02c-.1-.15-.24-.11-.14.05,0,.02.02.03.03.04.04.06.08.11.11.17.03.07.04.14,0,.21-.08.1-.26.11-.38.08-.26-.08-.32-.4-.12-.58.03-.03.03-.08.03-.13v-.04c0-.14.03-.27.18-.33.17-.07.33-.02.44.13.02.02.05.05.08.07.04.03.1.07.16.04Zm-.75,1.18c.14-.06.29-.05.44-.03.03,0,.05,0,.08,0,.12.01.26.01.37-.06.02,0,.04-.03.06-.04.11-.1.34-.16.47-.07.03.02.06.05.07.07.06.11-.12.24-.19.28-.08.04-.14.08-.23.1-.22.06-.44.08-.66.06-.18-.02-.43.04-.05.13.08.02.16.03.24.04h.01s.08.01.09.03c0,.02-.04.04-.05.05-.14.07-.28.16-.43.22-.03.01-.06.02-.09.03-.3.12-.19.19.04.14.04,0,.08-.02.12-.03.09-.03.19-.07.28-.11.04-.02.13-.07.13,0-.01.06-.04.14-.05.19-.08.31.04.28.14.05.01-.02.01-.03.02-.05.01-.04.03-.08.05-.12.06-.16.16-.29.29-.4.14-.13.45-.33.64-.23.07.03.09.09.08.16-.02.07-.09.19-.13.26-.04.07-.09.15-.13.22-.08.13-.21.4-.39.27-.05-.03-.09-.04-.14,0-.02.02-.03.04-.05.06-.04.06-.06.14-.1.21-.06.1-.14.16-.25.2-.06.03-.14.03-.2.01-.06-.02-.12-.05-.16-.1-.05-.05-.05-.11-.14-.12h-.09c-.09.01-.18.05-.27.06-.11.03-.21.01-.32-.05-.04-.02-.07-.06-.1-.09-.07-.09-.12-.2-.13-.31-.01-.11-.01-.24.08-.32.06-.06.17-.1.25-.13.04-.03.08-.06.1-.11.03-.04.04-.08.03-.13-.03-.17.13-.29.27-.35Zm1.83,1.18c.07-.21.24-.22.36-.04.13.2.06.46-.11.6-.09.07-.3.19-.32,0-.02-.18.01-.39.07-.56Zm-.15-2.39s-.03-.03-.04-.05c-.06-.05-.11-.11-.16-.17-.1-.14-.11-.15-.02-.3.13-.23.26-.45.39-.67.01-.03.04-.08.07-.1.02-.02.04-.04.07-.05.05-.03.11-.03.17-.03.19.01.39.17.27.38-.01.03-.03.06-.04.09-.02.05-.03.09-.05.14-.05.12-.09.25-.13.37-.01.03-.02.06-.03.09-.03.06-.04.13-.07.19-.02.07-.07.14-.14.17-.1.05-.21,0-.29-.06Zm.66-1.87s-.05-.03-.07-.03c-.03,0-.06.01-.08.03-.19.12-.4.28-.65.27-.24,0-.44-.14-.5-.35-.03-.12-.02-.23.05-.33.03-.06.08-.11.12-.15.04-.03.14-.09.13-.13,0-.02,0-.05-.02-.07-.01-.02-.04-.04-.05-.06-.03-.04-.05-.07-.06-.11-.01-.05-.02-.09-.01-.14.01-.14.11-.24.26-.25.06,0,.11,0,.16,0,.28.06.36.19.66.06.14-.06.32-.13.46,0,.08.07.06.19-.02.26-.22.19-.65.14-.94.14-.03,0-.17,0-.17.03,0,.02.03.03.04.04.03.01.06.01.09.02.05,0,.31.06.33.07.03.02,0,.05-.02.06-.02,0-.03.03-.05.04-.05.05-.1.08-.15.13-.07.07-.2.17-.22.27,0,0,0,.02.01.03.04.05.15-.03.18-.06.09-.09.19-.18.3-.25.11-.08.24-.14.36-.2.05-.02.12-.05.17-.01.06.05.03.21.03.28,0,.05.01.22.08.23.03,0,.05-.06.05-.08.02-.04.02-.09.03-.14,0-.14.06-.34.12-.47.02-.06.1-.23.19-.2.1.03.12.29.11.38,0,.2-.04.42-.15.6-.02.03-.04.06-.06.09-.04.04-.07.07-.12.09-.13.07-.25.08-.38.03-.03,0-.05-.03-.08-.04-.04-.02-.08-.05-.13-.08Zm8.49-1.31c-.03.17-.15.23-.23.36-.02.02-.03.04-.03.07-.01.02,0,.04,0,.05.04.09.01.17-.06.23-.08.09-.22.13-.33.15-.07,0-.14.02-.22.03-.2.02-.52,0-.33-.33.2-.28.46-.33.61-.47.13-.11.13-.22-.1-.12-.17.07-.25.16-.4.25-.05.02-.09.04-.11.04-.03-.01-.06-.09-.1-.18-.04-.09-.1-.15-.17-.17-.04-.02-.07.01-.05.05.03.06.05.1.07.17.05.15.07.32.01.41-.07.1-.21.09-.28-.02-.04-.06-.05-.14-.07-.21-.03-.12-.11-.21-.13-.34,0-.04,0-.09,0-.14,0-.07.03-.14.08-.2.06-.07.12-.11.21-.12.15-.03.32.05.47.1.15.05.24,0,.35-.09s.21-.17.31-.18c.31-.04.58.38.51.66Zm-.83-2.23c.26,0,.45.17.57.42.06.11.08.24.06.41,0,.06-.02.11-.03.16-.02.08-.07.16-.13.22-.25.21-.39-.02-.39-.25,0-.1.01-.2.08-.21.03-.01.08.01.13.01.13.02.09-.05.01-.1-.15-.09-.24-.11-.39-.24-.02-.03-.05-.05-.07-.08-.03-.05-.05-.1-.05-.16.01-.13.09-.18.21-.18Zm-.83-.38c.16.15.15.29.14.42-.03.37.05.23.33.45.19.14.26.41.13.65-.03.06-.07.11-.12.16-.14.12-.32.18-.5.16-.22-.03-.39-.17-.51-.36-.01-.02-.02-.03-.03-.05-.03-.06-.08-.17.01-.2.13-.05.36.04.48.1.03.01.16.11.16.03.01-.06-.05-.11-.08-.14-.16-.15-.32-.17-.52-.24-.04,0-.2-.06-.21-.12-.01-.03.05-.07.07-.08.02-.01.03-.02.05-.03.07-.04.39-.21.33-.32-.02-.03-.05-.02-.07-.01-.06.03-.12.06-.17.08-.08.04-.16.08-.25.11-.03.01-.07.02-.1.04-.14.04-.32.07-.4-.09-.04-.07,0-.14.05-.2.01-.02.02-.03.03-.05.03-.03.05-.05.08-.07.26-.21.8-.53,1.1-.24Zm-1.31-.51c.08-.04.23-.07.31-.01.1.08.09.24.03.34-.11.21-.41.27-.51.01-.02-.06-.03-.12,0-.18.03-.08.1-.13.17-.16Zm-1.42-1.07c.09,0,.15-.06.21-.13.03-.04.08-.08.11-.12.06-.06.14-.11.23-.12.1,0,.2.03.27.11.09.1.11.24.1.37,0,.04-.01.07-.01.11.01.06.03.1.07.14.03.03.06.05.09.06.18.07.24.21.18.4-.03.1-.08.19-.16.27-.05.06-.12.12-.18.18-.04.04-.07.09-.09.14-.03.05-.03.09-.03.15,0,.15-.05.27-.17.37-.07.05-.14.08-.22.11-.12.04-.23.06-.34.14-.01,0-.03,0-.04.02-.08.03-.21.1-.27.01-.01-.01-.01-.02-.02-.02-.01-.05.03-.13.05-.17.02-.03.04-.05.06-.08.12-.16.2-.26.36-.39.11-.1.23-.19.34-.3.02-.03.06-.06.09-.1.13-.15.12-.26-.07-.1-.02,0-.04.03-.06.05-.04.02-.08.06-.12.08-.09.05-.19.12-.09-.13.01-.05.13-.31.2-.54.08-.23.01-.47-.13-.08-.06.19-.2.55-.28.55h-.01s-.06-.16-.07-.19c-.03-.09-.06-.17-.1-.24-.11-.17-.2-.11-.11.09.23.54.08.99-.25,1.42-.04.04-.09.08-.15.07s-.1-.05-.11-.12c-.03-.1,0-.23.06-.32.08-.17.1-.33.08-.52-.01-.15-.05-.29-.07-.44-.04-.33.13-.83.54-.74.03,0,.07,0,.11,0Zm-1.48-1.94s.09.05.12.09c.02.01.04.05.06.05.05.02.16-.06.2-.09.24-.19.54-.08.73.13.14.16.21.37.1.56-.03.04-.05.07-.03.12.01.05.08.1.11.15.09.11.09.31-.02.41-.21.19-.48.13-.73,0-.21-.11-.39-.26-.29-.43.09-.15.28-.2.39-.32.1-.1.02-.14-.24-.01-.06.02-.12.06-.18.09-.06.05-.12.09-.18.15-.03.02-.07.05-.1.03-.02-.01-.03-.04-.03-.06,0-.03.01-.05.01-.08.01-.04.01-.09.01-.13s0-.24-.07-.24c-.02,0-.04.03-.04.05-.04.16-.05.25-.12.41-.08.17-.24.31-.41.27-.03,0-.07-.02-.09-.04-.08-.08-.04-.27,0-.38.03-.11.07-.22.11-.32.1-.22.44-.54.7-.41Zm-1.69-1.79c.07-.06.15-.1.26-.12.21-.04.4.01.53.16.24.26.19.51.1.8-.03.11-.03.2.14.23.08.01.12.09.12.21.01.46-.35.68-.71.82-.14.06-.23.11-.44.29-.04.03-.08.05-.12.06-.07.02-.14.01-.19-.03-.1-.06-.13-.18-.13-.29.02-.21.2-.32.37-.36.06-.01.11-.02.17-.02.07-.01.39-.06.5-.14.11-.07.03-.11-.08-.1-.09.02-.32.07-.39.03-.07-.05-.03-.11.02-.2.04-.08.09-.17.11-.21.02-.06.05-.13.07-.18.01-.04.08-.24.04-.32-.01-.02-.02-.02-.05.01-.02.03-.06.08-.1.17-.03.06-.07.15-.12.23-.17.3-.45.44-.45-.02,0-.35.08-.78.35-1.02Zm-1.69-.26c.04-.07.09-.13.16-.18.1-.07.21-.1.33-.11.12,0,.23.01.34.06.12.05.22.13.3.23.05.08.1.17.12.27.02.1.01.2-.03.29-.02.02-.03.05-.05.07-.07.08-.2.15-.3.15-.06,0-.15-.03-.21-.07-.13-.08-.08-.18-.06-.32.01-.05.01-.09-.01-.1-.05-.01-.11.05-.17.1-.08.09-.16.18-.29.17-.05-.01-.1-.04-.14-.07-.16-.14-.08-.33.01-.49Zm-.19,1.11s.09.06.12.05c.04-.02.1-.08.13-.11.13-.12.28-.2.46-.14.06.02.12.06.17.1.05.03.08.08.11.13.08.11.06.3.03.43-.02.07-.06.15-.1.22-.06.16-.08.2.05.32.03.04.05.08.07.13.05.22-.11.47-.3.57-.08.04-.16.06-.25.06-.08.01-.15,0-.22-.01-.08,0-.15.01-.23.04-.07.03-.13.07-.19.12-.13.08-.23.13-.37.17-.11.02-.22.03-.32,0-.07-.02-.14-.06-.16-.13-.05-.13.08-.25.17-.32.02,0,.03-.02.04-.03.02-.01.03-.02.05-.03.3-.17.72-.25,1.06-.24.03,0,.14,0,.14-.05,0-.01,0-.04,0-.04-.02-.02-.06-.03-.08-.04-.11-.03-.22-.05-.32-.06-.11,0-.11-.03-.03-.09.06-.06.12-.11.19-.17.06-.05.13-.12.18-.19.02-.03.04-.06.06-.08.1-.18.05-.25-.14-.07-.07.07-.14.13-.22.21-.06.05-.12.09-.18.14-.07.04-.14.08-.21.12-.08.05-.25.12-.29-.01-.05-.15-.01-.39.04-.55.05-.15.13-.34.25-.45.07-.05.13-.06.21-.05.03.01.06.04.09.05Zm-1.71-1.38c.03-.24.05-.44.16-.66.07-.14.18-.28.33-.36.15-.07.35-.11.5-.02.2.11.23.36.2.57,0,.05-.01.11,0,.16,0,.03.01.06.03.08,0,.02.05.02.07.02.05.01.1.03.14.05.08.03.12.08.15.15.07.15.02.31-.05.45-.11.21-.24.32-.42.47-.04.03-.08.07-.12.11-.06.05-.11.14-.15.21-.04.07-.11.21-.2.21-.07,0-.12-.03-.15-.09-.07-.17-.01-.37.07-.52.08-.17.2-.34.37-.44.03-.02.06-.03.08-.06.02-.02.05-.06.03-.09-.06-.08-.31.12-.36.16-.02.02-.07.05-.08.01-.02-.03.03-.33.04-.4.01-.09.01-.18-.01-.28,0-.02-.02-.09-.04-.09-.03,0-.06.09-.06.11-.09.35-.13.72-.27,1.07-.01.03-.02.06-.04.09-.03.08-.09.14-.17.15-.1.02-.2-.05-.25-.13-.08-.11-.11-.24-.1-.38.01-.08.04-.2.13-.22.15-.04.16-.21.17-.33Zm-.67-.86c.05-.08.12-.14.21-.17.04-.02.08-.02.12,0,.12.03.18.17.19.28.02.15-.03.32-.19.36-.16,0-.31-.07-.35-.23-.02-.08-.01-.16.02-.24Zm-1.56.57s.1-.01.16-.02c.04,0,.09,0,.12-.03.04-.02.06-.06.07-.11.01-.03.01-.06.01-.08.01-.03.01-.07.02-.1.03-.06.06-.12.12-.16.12-.09.27-.06.4,0,.2.08.37.25.49.43.09.14.15.3.17.47.01.11.01.29-.04.4-.07.12-.2.15-.32.13-.19-.03-.31-.17-.27-.36.01-.06.04-.15.03-.21,0-.02,0-.08-.03-.09-.1-.03-.21.34-.25.4-.11.18-.24.02-.32-.11-.04-.07-.08-.14-.13-.19-.02-.02-.04-.04-.06-.06-.02,0-.04-.02-.05-.01-.02.02.01.11.01.14.02.03.03.07.04.1.06.17.2.53-.01.64-.11.05-.22.03-.31-.04-.07-.06-.14-.16-.12-.25,0-.01.01-.02.01-.04.07-.16-.09-.27-.12-.42-.06-.29.12-.4.38-.43Zm-2.64.6c.23-.16.47-.14.71-.08.07.01.21.06.25-.03.01,0,0-.08.01-.1.02-.07.09-.1.15-.11.25-.03.42.07.56.26.12.14.12.23.16.4.03.13.09.21.19.29.02.02.04.03.07.05.12.08.22.2.28.34.06.16.06.43-.15.49-.18.05-.38-.15-.47-.29-.15-.24-.26-.57-.3-.84-.01-.04-.01-.08-.03-.11-.01-.01-.03-.03-.04-.03-.03,0-.05.07-.05.09-.01.04-.01.08-.01.12,0,.06-.01.13,0,.19.01.1-.01.1-.09.04-.12-.09-.26-.2-.39-.26-.08-.04-.15-.07-.23-.1-.03,0-.14-.03-.16.01-.01.04.03.08.05.09.11.07.23.13.34.2.08.06.16.12.22.2.03.06.05.12.03.18-.04.13-.24.15-.35.15h-.1c-.09-.01-.18-.01-.26-.02-.05-.01-.12-.01-.17-.03-.06-.02-.13-.06-.13-.13,0-.06.05-.1.1-.12.01-.01.05-.02.06-.03.01,0,.03-.03.02-.05-.02-.08-.24-.06-.32-.08-.06-.02-.12-.05-.16-.1-.03-.03-.05-.07-.06-.11-.03-.17.14-.39.27-.48Zm-.31,2.04c.01-.08.03-.16.07-.23.04-.08.12-.15.2-.19.11-.07.28-.13.4-.04.05.04.09.1.1.16.01.05.08.03.11.02.05-.02.1-.05.15-.07.35-.17.63-.09.76.3.04.11.01.27-.02.38-.06.15-.16.29-.32.34-.02.02-.05.03-.08.04-.08.03-.16.09-.15.19,0,.06.03.09.05.13.05.07.06.12.04.2-.07.27-.29.3-.52.35-.11.03-.23.06-.33.09-.07.02-.17.07-.24.06-.05,0-.1-.03-.13-.08-.04-.08.03-.17.09-.22.13-.1.33-.13.48-.19.04-.01.21-.09.21-.13-.01-.04-.16-.01-.18-.01-.12.02-.22.06-.33.08-.03,0-.1.02-.12.01-.02-.03.05-.13.07-.16.2-.28.41-.55.68-.76.03-.03.22-.2.19-.24-.02-.02-.07.01-.09.02-.21.09-.36.25-.53.4-.02.02-.05.04-.07.07-.01,0-.02,0-.03,0-.03,0-.02-.14-.02-.17.01-.04,0-.18,0-.23-.01-.01-.01-.05-.03-.06-.04,0-.07.13-.08.15-.06.25-.06.43-.14.62-.07.14-.35.62-.45.71-.06.05-.13.06-.18-.03-.07-.12-.03-.38.01-.51.05-.21.13-.32.28-.47.09-.1.13-.2.14-.33,0-.07,0-.14.01-.21Zm-1.1-.82c.08-.13.21-.23.35-.29.21-.09.49-.1.65.08.07.08.08.2.03.29-.05.12-.15.2-.28.13-.04-.01-.15-.06-.19-.02-.04.05.05.19.08.23.04.07.08.16.09.25.03.19-.03.42-.21.52-.07.04-.14.05-.22.04-.22-.03-.21-.26-.21-.43.01-.11-.08-.26-.12-.35-.02-.05-.04-.11-.04-.16-.01-.1.02-.2.07-.29Zm-.81.68c.19-.26.69.19.45.46-.06.05-.14.08-.22.08-.06,0-.13-.03-.19-.08s-.1-.12-.11-.2c-.01-.1.02-.19.07-.26Zm-.95,1.88s.04-.02.05-.04c.04-.07-.02-.24-.04-.32-.01-.05-.02-.11-.03-.16-.02-.09-.01-.17.02-.25.05-.11.15-.19.27-.23.14-.04.29,0,.41.09.03.02.06.04.1.06.03.01.07.03.11.04.02,0,.06.01.09,0,.04-.01.07-.04.1-.06.05-.04.07-.09.14-.12.1-.03.24.09.32.16.14.17.13.28.17.49.01.06.03.12.07.18.03.06.08.11.13.14.09.04.17.1.22.18.09.15.03.28-.03.43-.02.06-.05.13-.07.2-.04.14.02.52-.2.54-.09.01-.14-.11-.17-.18-.01-.04-.02-.08-.04-.11-.06-.21-.11-.4-.13-.61-.02-.27-.04-.5-.11-.75-.01-.07-.03-.1-.05-.09-.06,0-.04.21-.04.34,0,.08.01.16,0,.24,0,.02-.01.13-.03.14-.02,0-.08-.09-.1-.11-.16-.2-.31-.41-.5-.57-.03-.03-.19-.16-.22-.13-.02.02.03.09.04.11.02.03.05.06.07.09.07.08.14.16.2.25.03.03.23.29.15.32-.03.01-.18-.03-.22-.04-.14-.03-.28-.03-.43,0-.01.01-.05.02-.05.04,0,.04.19.06.22.06.4.03.74.23.96.59.07.12.24.42.06.53-.1.06-.21.02-.3-.05-.07-.04-.12-.1-.17-.16-.07-.08-.15-.21-.24-.27-.11-.06-.2-.07-.32-.08-.19,0-.39-.06-.51-.22-.04-.04-.06-.09-.08-.15-.07-.21-.02-.41.18-.52Zm-.38,2.08s.01-.1,0-.14c-.03-.14-.01-.28.09-.39.08-.09.2-.14.31-.16.13-.02.28,0,.38.09.13.1.16.26.13.42-.03.2-.07.22.1.35.03.01.05.02.07.04.11.13.07.33.02.48-.04.12-.11.24-.19.34-.06.06-.15.12-.23.11-.16-.03-.21-.25-.23-.38-.02-.12-.03-.24-.03-.36,0-.04.01-.07.01-.11,0-.05,0-.11.01-.17,0-.21-.1-.09-.11,0l-.03.18c-.05.21-.04.51-.27.59-.11.03-.24,0-.33-.07-.12-.1-.16-.26-.15-.42.01-.16.16-.23.29-.29.06-.02.14-.05.16-.11Zm-1.83-1.13c.02-.07.08-.14.15-.18.16-.09.31-.08.47.01.02,0,.05.03.07.04.07.03.14.07.22.06.05,0,.11-.02.16-.03.03-.01.06-.02.09-.02h.08c.08,0,.16.02.23.07.19.13.21.34.13.54-.01.03-.02.06-.04.09-.09.14-.21.21-.36.25-.02,0-.04,0-.06.02-.08.01-.17.01-.23-.04-.02-.03-.03-.06-.04-.09-.01-.16.09-.3.18-.42.01-.02.06-.09.04-.11-.01-.01-.05.01-.06.01-.13.08-.17.17-.27.27-.03.02-.04,0-.06-.02-.03-.05-.06-.1-.1-.15-.04-.06-.08-.1-.14-.15-.01-.01-.06-.05-.08-.03-.01.01.02.06.02.07.02.03.03.05.04.07.01.02.03.04.04.06.02.03.03.06.05.09.05.1.07.2.09.31.02.14-.08.26-.22.27-.02,0-.04,0-.06-.01-.03,0-.05,0-.07-.01-.14-.05-.18-.19-.16-.33v-.11c0-.09-.06-.21-.1-.3-.04-.07-.04-.15-.01-.23Zm.12,1.61c.12.04.19.12.23.23,0,.03.02.06.03.09.01.02.03.06.05.08.01,0,.03.01.04.01.03,0,.06,0,.09,0,.11.02.21.06.23.18,0,.02,0,.05,0,.07,0,.08,0,.16-.04.24-.06.14-.14.33-.3.39-.15.06-.26-.12-.31-.23-.04-.1-.07-.2-.08-.3-.01-.05-.03-.11-.05-.16-.01,0-.03-.05-.05-.05s-.03.04-.04.06c-.01.06-.01.13,0,.18.01.15.04.3.09.44.01.03.02.06.04.09.01.04.06.13.02.18-.02.03-.08.03-.12.03-.03,0-.06,0-.1-.01-.03,0-.1.01-.1.05-.01.03.02.05.04.06.02,0,.03.01.05.01.19.05.41.09.56.22.15.13.23.34,0,.43-.06.03-.13.04-.19.03-.17-.01-.28-.1-.4-.22-.09-.09-.17-.19-.24-.29-.03-.06-.08-.14-.1-.21-.03-.1.05-.21.11-.28.11-.11.02-.3-.03-.42-.1-.22-.15-.49.01-.69.07-.09.17-.16.26-.21.09-.04.2-.04.29-.01Zm-1.68-.08c.02-.08.06-.12.12-.17.07-.06.14-.08.16-.18,0-.06,0-.11,0-.16,0-.05,0-.11.02-.16.07-.35.29-.48.62-.31.08.04.09.05.18.02.1-.04.17.01.24.09.06.08.07.19.04.29-.03.08-.09.19-.15.26-.12.16-.33.35-.43.06-.02-.04-.07-.24-.13-.24-.03.01-.03.09-.03.11-.01.15-.01.29,0,.43.01,0,.01.01.01.01.01.1-.01.2-.08.27-.15.11-.38.1-.5-.04-.08-.08-.09-.18-.07-.28Zm-.79.45c.07-.16.27-.23.43-.16.17.07.21.28.09.42-.15.18-.52.02-.53-.2,0-.02.01-.04.01-.06Zm-.15,1.06c.08-.09.24-.12.35-.17.13-.05.26-.13.36-.24.09-.09.19-.26.35-.18.09.05.11.2.07.29-.13.27-.46.4-.72.5-.03.01-.14.06-.13.1.01.03.09.03.12.02.08-.02.16-.04.24-.06.06-.02.1-.01.06.06-.01.02-.02.04-.03.06-.03.07-.07.14-.1.21-.04.1-.06.19-.05.29,0,.02.01.05.02.06.03,0,.07-.08.08-.1.06-.15.13-.3.22-.44.08-.12.16-.23.25-.35.06-.07.09-.05.11.03.03.08.03.16.05.24.01.04.07.21.13.21.03-.01.03-.08.03-.1-.01-.05-.02-.1-.02-.15-.02-.09-.03-.18-.04-.26v-.27s.05-.25.11-.26c.07,0,.13.2.15.25.05.17.08.37.08.55,0,.09,0,.18-.02.26-.02.13-.06.26-.17.35-.08.06-.16.09-.26.08-.03-.01-.05-.02-.07-.03-.07-.04-.09-.08-.14-.01-.01.01-.02.03-.02.04-.14.25-.29.39-.59.38-.36,0-.57-.32-.4-.64.02-.05.11-.17.09-.22,0-.03-.04-.07-.06-.09-.02-.03-.04-.06-.06-.08-.02-.03-.03-.07-.04-.1-.01-.08-.01-.16.05-.23Zm-.26,3.15s-.06-.11-.07-.17c0-.06,0-.12.01-.19.02-.2-.1-.16-.23-.36-.21-.31-.01-.88.39-.85.05,0,.11.01.16.03.08.03.16.07.24.11.05.03.12.07.17.09.06.02.12.01.18-.01.05-.03.11-.06.17-.08.12-.03.23.04.32.11.08.07.15.15.22.23.1.12.19.26.25.4.03.07.08.22.03.28-.02.02-.04.03-.07.03-.03.01-.07,0-.1-.01-.12-.04-.2-.2-.26-.3-.06-.13-.14-.3-.25-.4-.02-.03-.05-.05-.06-.03-.04.02-.01.11,0,.14.02.05.05.09.07.14.02.04.06.11.06.15.02.08-.06.04-.09.03-.13-.06-.25-.12-.38-.18-.13-.05-.22-.08-.36-.11-.03-.01-.18-.03-.19.02,0,.03.03.07.05.08.19.06.34.11.51.21.07.05,0,.09-.04.11-.13.06-.22.09-.34.16-.02.02-.09.07-.08.1.01.04.13-.01.15-.02.39-.14.61-.17,1.01-.02.05.02.11.06.15.09.04.04.12.12.1.18-.01.06-.11.07-.16.07-.14.01-.29-.02-.44-.05-.18-.03-.36-.02-.53.06-.18.08-.45.15-.59-.04Zm.99,3.75s-.09.02-.13.03c-.1,0-.21,0-.28-.09-.04-.05-.06-.12-.09-.18-.02-.06-.06-.09-.13-.08-.02.01-.05.02-.07.04-.07.04-.15.05-.23.04-.13-.04-.24-.17-.29-.29-.06-.19-.05-.38.09-.54.02-.04.05-.06.08-.09.21-.18.09-.19.17-.39.02-.03.04-.06.06-.08.06-.07.14-.1.23-.12.18-.05.4-.03.56.09.09.06.16.15.03.22-.33.19-.49.2-.74.54,0,.01-.03.05-.01.06.02.03.13-.05.15-.06t.02-.02c.08-.06.17-.13.27-.18.03-.02.12-.06.15-.03,0,.01,0,.03-.01.04-.01.05-.03.09-.04.13-.02.12-.01.28.01.4.03.08.08.1.09,0,.01-.15.03-.26.09-.4.02-.05.04-.1.08-.14.04-.06.1-.13.16-.16.04-.03.09-.04.13-.02.05.02.06.07.06.12.01.07-.01.15-.04.21-.07.14-.07.27-.07.42.01.23-.05.46-.3.53Zm.95.34c-.02.09-.08.16-.15.21-.08.06-.24.13-.34.08-.13-.06-.15-.24-.11-.37.04-.14.17-.26.32-.26.1,0,.18.05.23.14.05.06.07.13.05.2Zm.04-.92c-.36-.1-.3-.42-.13-.65.1-.15.26-.24.32-.42.05-.12,0-.24.03-.37,0-.01.01-.03.01-.05.04-.13.16-.18.28-.21.12-.04.2-.06.27-.09.16-.07.32-.23.42-.25.11-.03.21.02.03.25-.02.03-.05.06-.07.1-.14.19-.25.39-.45.58-.11.1-.22.2-.32.32-.05.06-.19.23-.2.31h0s.02.03.04.03c.03,0,.05-.02.07-.04.05-.06.1-.12.16-.17s.12-.1.18-.15c.02-.01.11-.07.13-.06h0s-.02.12-.02.14c-.06.24-.18.67-.11.92.02.05.05.01.06-.02.01-.04.02-.1.03-.15.02-.07.03-.15.05-.23.01-.05.12-.47.2-.43.03.01.08.15.1.18.06.13.14.23.25.32.02.01.04.03.06.02.03-.03-.07-.17-.08-.2-.34-.49-.22-.98.08-1.39.02-.03.04-.05.05-.07.25-.31.49-.32.38.11-.01.03-.02.06-.03.09-.07.22-.18.44-.16.71,0,.12.04.22.07.31.12.27.31.65.02.9-.07.06-.16.09-.27.05-.08-.03-.14-.08-.22-.1-.08-.02-.14.05-.18.1-.05.06-.09.13-.14.18-.11.11-.28.16-.43.11-.18-.06-.26-.22-.27-.4,0-.03-.01-.07-.01-.1-.02-.06-.05-.1-.1-.14-.03-.02-.07-.03-.1-.04Zm1.97,2.19c-.07.05-.14.09-.22.12-.06.02-.13.03-.19.03-.08,0-.15-.02-.2-.09-.02-.02-.03-.04-.04-.06-.01-.02-.02-.04-.04-.05-.01-.01-.02-.01-.04-.01-.03.01-.07.06-.09.09-.04.05-.07.1-.12.14-.14.13-.3.11-.46.02-.08-.05-.15-.12-.21-.19-.18-.18-.31-.51-.16-.75.13-.21.43-.3.66-.33.03,0,.07,0,.1,0,.02,0,.04,0,.06-.01.05,0,.12.01.14.07.02.05,0,.12-.04.17-.09.11-.17.19-.28.27-.03.02-.16.11-.09.14.04.03.11,0,.15-.02.16-.08.27-.17.39-.31.02-.03.04-.06.06-.08.03-.03.11-.1.15-.07.05.02.05.15.05.2v.06c.01.07.03.33.12.32.03,0,.03-.04.03-.06.02-.2-.02-.99.26-1,.08,0,.13.08.16.15.04.1.05.25.04.37,0,.26.02.71-.19.89Zm.99.22c-.06.04-.13.05-.19.03-.18-.04-.24-.29-.24-.44-.01-.08-.01-.28.09-.3.03-.01.07,0,.09.01.03.01.06.02.09.03.03.01.08.03.13.03.03,0,.07-.01.08-.04.01-.04-.03-.07-.05-.08-.06-.05-.12-.09-.18-.14-.01,0-.03-.01-.04-.02-.28-.15-.5-.61-.13-.8h.01c.17-.07.45-.08.56.1.04.07.04.15.01.23-.05.12-.13.26-.08.39.04.08.07.15.11.23.03.04.05.08.06.13.01.02.01.05.01.08-.02.22-.14.46-.33.56Zm.36-2.46c-.09.27-.37.36-.63.33-.21-.03-.41-.26-.47-.46-.01-.02-.01-.05-.01-.08-.01-.05,0-.1.01-.14.02-.07.07-.19.03-.26-.02-.04-.11-.09-.15-.12-.02-.01-.05-.03-.06-.05-.15-.17.01-.42.12-.57.02-.03.04-.06.06-.09.04-.04.08-.09.11-.14.02-.05.03-.09.04-.14.01-.05.01-.1.03-.15.03-.08.08-.17.16-.21.05-.03.12-.05.17-.02.06.04.07.1.06.16-.01.07-.03.09-.06.16-.05.1-.1.19-.15.29,0,.02-.06.1-.03.12.01.01.04-.01.05-.02.08-.05.14-.1.21-.16.02-.03.12-.13.16-.09.06.05-.01.33-.03.41-.02.07-.04.15-.06.22-.05.19-.14.37-.19.56-.01.02-.02.04-.02.06,0,.09.06.07.1.02l.02-.02c.2-.18.32-.25.48.01.06.11.09.25.05.38Zm1.73,2c-.06.13-.24.17-.36.1-.08-.04-.14.08-.18.13-.09.13-.22.25-.37.29-.12.03-.25,0-.34-.06-.09-.06-.14-.16-.15-.27s.02-.24.06-.34c.04-.07.09-.18.06-.26-.02-.06-.09-.12-.13-.16-.19-.18-.28-.36-.09-.58.1-.13.23-.16.23-.35,0-.07.03-.14.09-.18.06-.04.14-.05.21-.03.08.02.14.07.18.15.1.22-.17.45-.31.59-.02.02-.13.13-.1.17.02.03.14-.01.16-.03.04-.01.07-.03.1-.05.14-.09.28-.11.27.1,0,.13-.03.25-.07.38-.01.04-.06.24,0,.26.02.01.06-.02.07-.04.03-.03.06-.08.08-.13.03-.08.06-.16.09-.24.02-.06.06-.14.12-.17.02,0,.05-.02.08-.02.2.01.29.17.33.35.03.14.02.26-.03.39Zm-.48-1.81c.14-.13.31-.01.37.12.05.12.05.33-.08.39-.27.12-.52-.33-.29-.51Zm.39-1.16c-.03.05-.05.09-.05.14-.01.24.04.45-.19.57-.13.07-.33.1-.47.04-.11-.05-.19-.14-.25-.24-.09-.18-.15-.36-.37-.33-.31.04-.39-.07-.38-.39,0-.14.03-.29.06-.42.04-.17.07-.33.05-.49-.02-.1-.05-.19-.07-.28-.02-.08-.03-.2.07-.23.15-.04.27.2.33.31.09.16.21.37.17.58-.01.04-.03.09-.04.13-.03.09-.07.17-.1.25-.02.04-.03.08-.01.1.03.02.06-.01.08-.05.04-.05.08-.12.11-.17.02-.03.08-.11.12-.11.04.01.06.11.07.15.03.11.07.22.11.33.02.04.11.32.17.3.02,0,.01-.06.01-.07-.01-.14-.04-.28-.08-.41,0-.02-.01-.04-.01-.06-.04-.14-.03-.17.06-.13.09.04.14.05.24.07.05.01.1.01.11-.01,0-.04-.15-.11-.17-.12-.17-.09-.28-.13-.39-.29-.04-.05-.06-.11-.09-.17,0-.02-.04-.08-.02-.1.01-.01.03-.01.05-.01.13.01.25.01.39-.01.06-.02.07-.06-.01-.07t-.02-.01c-.13-.02-.25-.03-.37-.06-.12-.04-.25-.16-.32-.26-.02-.03-.04-.06-.06-.09-.02-.05-.02-.08.03-.12.07-.04.24.03.32.07.05.02.11.05.17.07.05.01.09.02.14.03.15.03.29.06.39.19.09.11.09.26.06.39-.02.09,0,.17.07.25.12.13.2.15.24.36.03.17-.07.25-.15.37Zm.22-1.59s.13-.01.18.02c.07.06.13.14.17.22.06.11.1.24.14.36.01.02.03.08.05.08.05-.02.01-.22.01-.26-.01-.03-.01-.05-.02-.08-.01-.04-.02-.1.02-.12.03-.02.09.01.12.02.03.01.07.02.1.04.16.09.2.18.31.33.02.03.03.05.06.08,0,.01.04.07.07.07.05-.02-.09-.29-.1-.35-.01-.07.04-.07.09-.06.13.02.23.02.36,0,.02,0,.08-.01.08-.04,0-.03-.02-.05-.05-.06h-.06c-.19-.01-.39-.03-.57-.1-.02,0-.04-.01-.05-.03-.01-.04.05-.1.07-.13.03-.03.06-.07.09-.1,0-.02.08-.11.06-.13-.01-.02-.08.03-.1.04-.09.06-.17.14-.28.17-.12.05-.25.01-.37-.03-.13-.04-.46-.2-.36-.39.02-.02.03-.04.06-.05.04-.03.09-.03.14-.01.32.1.37.09.66-.08.07-.04.15-.07.23-.08h.1c.15,0,.29.08.33.24,0,.03.01.05.01.08s-.01.06-.01.08c-.01.03-.03.09-.02.12.01.04.07.07.11.09.07.04.15.05.22.07.09.04.15.08.2.16.07.11.09.26.03.38-.06.15-.21.23-.37.24-.04.01-.15.02-.17.05-.01.01-.01.02-.01.03-.01.02-.01.04-.01.05,0,.18-.11.28-.28.22-.11-.03-.2-.14-.3-.21-.03-.04-.07-.06-.1-.06s-.05.01-.08.03c-.01,0-.02.03-.03.04-.07.09-.16.07-.25.04-.03-.01-.07-.03-.1-.05-.11-.09-.19-.23-.26-.35-.06-.12-.16-.34-.16-.48,0-.03.01-.07.04-.1Zm.08,1.97c.12-.17.22-.18.37-.05.15.13.26.32.29.51.03.18-.06.17-.21.14-.06-.01-.13-.03-.2-.04-.04,0-.08-.02-.12-.04-.03-.01-.06-.02-.09-.03-.18-.1-.14-.35-.04-.49Zm9.21,1.21s-.09-.01-.14-.01c-.04,0-.07.03-.05.06.02.03.12.09.15.12.07.06.07.12-.03.13-.13.01-.21-.03-.32-.05-.02,0-.09-.01-.1.02-.02.04.04.09.06.1.06.04.26.15.16.23-.04.04-.14.03-.18.01-.08-.02-.16-.06-.24-.08-.01-.01-.05-.02-.06,0-.05.05.12.17.15.19.06.03.14.11.08.18-.04.04-.17,0-.22,0-.05-.02-.13-.04-.18-.07-.02-.01-.03-.02-.05-.03-.02-.01-.05-.01-.06.01-.02.05.05.12.08.15.03.03.05.05.08.07.03.02.05.04.07.06.01,0,.02.03.03.04.01.02.01.05,0,.07-.05.04-.2.02-.26,0-.06-.04-.12-.06-.19-.09,0,0-.01-.01-.02-.01-.06-.02-.06.02-.04.07.02.06.09.12.13.16.05.04.1.08.14.12.02.02.06.06.06.1t0,.02s-.07.03-.11.03c-.06,0-.11-.02-.16-.04s-.1-.05-.15-.07c-.02-.01-.15-.07-.17-.04-.01.02.03.07.04.08.05.06.12.12.17.17.05.04.11.08.16.12.02.02.07.05.07.08,0,0,0,.02-.01.03-.03.05-.12.04-.16.04-.16-.02-.27-.11-.41-.16-.03,0-.1-.03-.12,0-.01.02.02.06.03.08.03.04.08.09.12.13.07.06.13.1.21.15.01,0,.02.01.03.01.02.02.14.08.1.12-.05.06-.2.04-.27.02-.09-.03-.19-.05-.28-.1-.02-.01-.23-.13-.25-.08-.01.03.02.1.04.12.12.15.24.22.42.3.01,0,.02.01.03.02.02.01.05.04.03.07-.03.02-.06.03-.09.04-.17.02-.34-.05-.49-.12-.03-.01-.25-.11-.28-.06-.02.03.03.09.04.11.07.07.19.14.27.18.04.03.2.12.17.18-.03.06-.19.04-.24.03-.09-.02-.16-.05-.24-.07-.04-.01-.09-.02-.13-.02-.01.01-.04.01-.05.03-.01.01,0,.04.02.06.02.04.06.07.1.09.07.04.15.07.22.1.07.02.14.04.2.07.02,0,.04.01.06.02.03,0,.06.01.09.02.05.02.18.07.15.14-.02.02-.04.03-.06.03-.15.02-.29-.03-.43-.03-.03,0-.08.02-.09.06,0,.04.04.07.07.08.12.05.24.09.36.12.07.02.12.05.18.08.04.02.13.08.12.13-.02.04-.12.04-.15.03-.13-.01-.26-.06-.39-.05-.03,0-.07,0-.08.04-.01.03.02.05.04.06.07.04.15.07.22.09.03,0,.07.03.1.04.04.01.08.03.11.05.03.01.06.02.08.04.04.02.12.08.12.13-.01.07-.15.04-.19.03-.11-.02-.23-.05-.35-.06-.11-.02-.16.06-.04.12.13.07.27.13.4.2.04.02.07.04.11.06.03.03.12.09.11.14-.01.05-.11.03-.14.03-.06-.01-.13-.03-.2-.05s-.26-.09-.32-.02c-.01,0,0,.03,0,.04.03.06.15.12.21.14.11.04.23.1.32.16.13.09.16.18-.03.17-.04,0-.08-.01-.13-.02-.06,0-.12-.03-.19-.04-.04,0-.1-.01-.14.01h-.01s0,.09.03.1c.08.07.25.12.36.15.04.02.09.04.13.07.03.03.04.08,0,.11-.03.03-.19.05-.24.06-.03.01-.07.03-.1.04-.12.08-.03.14.06.15.02.01.04.01.05.01.08.01.15.02.23.03.07.01.13.02.2.04.06.02.11.05.15.09.04.03,0,.06-.04.07s-.1.01-.15.01c-.03,0-.06,0-.08.01-.07.01-.15.07-.08.12.07.04.19.05.27.06.19.01.32.01.5.09.04.02.11.06.11.1,0,.02-.03.03-.05.03-.12.01-.29-.03-.4.01-.03.01-.06.03-.01.07.02.02.05.03.08.04.08.02.16.03.24.04.13.01.36.04.46.13.02.02.04.04.03.06,0,.03-.04.04-.06.04-.07.01-.46-.06-.47.05,0,.05.06.06.1.07.16.01.32.04.48.08.06.02.2.07.22.14.02.06-.1.06-.13.05-.05,0-.08,0-.13-.01s-.11-.01-.16-.01c-.03.01-.08.02-.07.06,0,.03.03.04.05.05.15.05.3.06.44.12.08.03.13.06.19.1.05.04.07.07.06.13s-.06.08-.11.1h-.02s-.2.07-.2.07c-.05.01-.1.02-.15.01-.02,0-.05,0-.07-.01-.13-.02-.25-.08-.37-.13l-1.01-.41c-.1-.04-.19-.08-.29-.12-.05-.02-.11-.05-.17-.07-.03-.02-.08-.04-.11-.06-.08-.06-.12-.19-.14-.28-.05-.13-.08-.27-.11-.41v-.06s-.01-.02-.01-.02c-.03-.17-.06-.35-.08-.53-.03-.23-.05-.46-.06-.68,0-.07,0-.14-.02-.21,0-.05-.01-.11-.02-.16-.01-.03-.02-.13-.07-.13,0,0-.02,0-.02,0-.04.05-.05.26-.05.33,0,.08-.01.16-.01.25,0,.05-.02.18-.09.19-.05.01-.1-.07-.12-.11-.01-.03-.07-.13-.11-.11,0,0-.01,0-.01,0-.04.06.03.27.05.33s.04.12.06.17c.01.04.03.08.05.12.03.11.07.21.1.31,0,.04.02.08.02.12.01.04.02.17-.06.12-.05-.03-.08-.09-.11-.14-.04-.07-.09-.14-.14-.21-.03-.05-.07-.1-.12-.14-.1-.09-.12-.03-.09.08.02.1.05.2.1.29.05.1.1.2.13.3.05.1.11.23.12.34,0,.04.01.13-.05.12-.07,0-.13-.13-.17-.18-.04-.06-.07-.11-.11-.16-.03-.03-.06-.07-.09-.1-.08-.08-.09,0-.08.07,0,.05.02.1.04.15.03.08.07.16.1.23.04.09.09.19.11.28,0,.03,0,.08-.03.1-.02.01-.04.01-.06,0-.03-.01-.08-.06-.11-.08-.03-.02-.06-.05-.09-.07-.02-.01-.09-.06-.12-.03-.03.02-.02.11-.02.14.01.08.02.16.03.25,0,.07,0,.15-.02.22-.02.09-.05.12-.13.16-.17.09-.35.07-.46-.09l-.33-.49c-.07-.11-.15-.21-.22-.32-.04-.05-.07-.11-.09-.17,0-.07,0-.14,0-.2.05-.4.09-.79.1-1.19,0-.14.01-.28.01-.42,0-.31,0-.62-.01-.93,0-.05,0-.1-.01-.15-.02-.14-.11-.21-.14-.03,0,.04-.01.08-.02.11,0,.07,0,.14,0,.21,0,.07,0,.13-.01.2,0,.04,0,.08-.01.12,0,.04-.01.09-.02.12-.02.08-.06.08-.11.02-.03-.04-.07-.1-.13-.1-.04,0-.04.01-.04.05-.01.05.02.12.05.17.09.2.15.41.16.64,0,.01,0,.09-.03.1-.02,0-.04-.05-.05-.06-.03-.08-.07-.16-.12-.23-.02-.03-.04-.05-.06-.08-.02-.03-.05-.06-.08-.08-.03-.02-.08-.04-.1-.02-.05.03-.03.11,0,.15.08.17.15.34.2.52.01.07.1.58,0,.58-.02,0-.03-.05-.03-.06-.03-.08-.05-.17-.09-.25-.02-.06-.05-.12-.09-.19-.05-.08-.14-.21-.24-.22-.07,0-.06.07-.04.11.07.22.17.4.21.63.02.07.02.14.02.21.01.06.01.29-.07.31-.05,0-.08-.14-.09-.17-.01-.03-.01-.06-.02-.09-.06-.18-.17-.52-.36-.58-.1-.04-.05.14-.04.18.05.15.1.31.13.47.01.09.02.21,0,.3-.01.04-.04.12-.09.12,0,0-.02-.01-.03-.02-.04-.05-.05-.16-.06-.22-.03-.13-.11-.32-.23-.38-.02,0-.04,0-.06,0-.03.02-.02.08,0,.11.04.15.12.49,0,.62-.02.01-.07.05-.09.01-.02-.09-.04-.19-.09-.28-.03-.04-.06-.09-.11-.03-.03.04-.05.1-.07.15-.1.21-.27.38-.49.46-.11.03-.22.04-.33.04-.06,0-.12,0-.17-.01-.02,0-.04,0-.06-.02-.09-.03-.17-.07-.12-.18.07-.14.15-.26.22-.39.07-.12.14-.25.21-.37.08-.12.18-.26.29-.36.25-.22.76-.61.89-.91,0-.02.01-.05.02-.07.01-.08.02-.17.03-.25.01-.1.02-.21.02-.31.01-.24.01-.48.01-.72,0-.4-.01-.81-.01-1.21-.01-.06-.01-.11-.02-.17-.02-.07-.06-.15-.09-.22-.05-.12-.09-.24-.14-.36-.05-.15-.11-.29-.15-.44-.03-.07-.06-.2-.08-.27-.02-.1-.04-.19-.08-.28-.02-.06-.05-.11-.1-.16-.05-.06-.11-.09-.18-.12-.35-.14-.69-.28-1.03-.44-.18-.09-.36-.18-.53-.29-.05-.04-.11-.09-.14-.15-.06-.09-.12-.26-.06-.36.08-.15.25-.11.38-.07.03.02.07.03.11.05.09.03.17.06.26.09.11.03.37.12.48.11.02-.01.05-.01.07-.03.02-.02-.01-.08-.02-.11-.02-.03-.03-.06-.05-.09-.01-.03-.03-.06-.04-.09-.03-.04-.05-.08-.08-.12-.06-.1-.11-.2-.17-.3-.1-.17-.18-.35-.26-.53-.01-.04-.03-.07-.04-.11-.02-.08,0-.17.06-.22.05-.05.13-.06.19-.05.09.02.15.05.2.12.01.01.02.02.03.03.02.01.03.03.03.04.02.02.05.07.04.1-.01.03-.08.03-.1.03-.03,0-.15.02-.12.06.01.02.03.03.05.03.01.01.03.01.05.02.08.01.17.01.25.03.09.03.19.15.03.15h-.07s-.11.01-.11.04.09.05.11.05c.08.02.19.04.26.08.02.01.04.06.05.08,0,.03-.04.04-.07.04h-.05s-.09.01-.12.02c-.02.01-.02.04-.01.05,0,.01.02.02.03.02.01.01.03.01.05.01.04.01.09.01.14.02.04.01.08.02.11.04.02.01.06.05.07.07.02.04-.06.05-.08.05-.05,0-.1,0-.14.02-.02.01-.05.03-.05.05.01.04.1.05.12.05.04.01.08.01.11.01.08.01.16.02.22.07.02,0,.04.05.02.07-.01.02-.04.03-.06.03-.06,0-.12,0-.17.02-.02,0-.07.02-.07.04,0,.05.13.08.15.08.23.05.43.09.64.19.01.01.03.02.03.04,0,.04-.06.05-.09.06-.02,0-.13.02-.14.04-.03.06.06.07.1.07.11.02.62.05.63.19,0,.02-.01.03-.02.04-.02.02-.06.02-.08.01h-.06c-.07,0-.18-.01-.24.02-.09.03-.06.07.01.09.04.01.07.02.11.03.05.01.09.03.14.04.09.04.32.13.36.23v.03s-.08.02-.11.02c-.09-.02-.18-.06-.27-.05-.03,0-.09.01-.1.05,0,.02.01.04.03.05.02,0,.03.01.05.01.03.01.06.03.09.03.03.02.07.03.11.05.14.05.4.17.5.27.01,0,.03.04.02.06-.02.06-.22-.01-.26-.02-.04-.01-.1-.03-.15-.03-.02,0-.13,0-.14.02,0,.05.11.11.13.12.01,0,.02.01.03.01.05.02.1.04.14.06.15.07.28.12.4.23.02.02.08.08.06.12-.03.05-.17,0-.2-.03-.04-.01-.09-.02-.13-.03-.04-.02-.08-.03-.12-.04-.02,0-.13-.02-.14.01-.01.02.02.06.04.07.03.03.07.06.12.09,0,0,.01.01.02.01.08.04.15.07.22.12.1.05.24.11.3.2,0,.01,0,.02,0,.02.02.03.06.1.04.13-.02.02-.09-.02-.11-.04,0,0-.03-.01-.04-.02-.02-.01-.05-.02-.07-.03-.03-.01-.06-.02-.08-.02-.02,0-.13-.04-.14-.02-.01.02.02.06.03.07.02.03.06.06.1.09.03.02.06.05.09.07.1.09.22.2.27.33.03.06.04.13.05.19.02.09.01.2.04.28.02.03.04.06.08.05.08,0,.06-.17.06-.23.01-.1,0-.2,0-.3v-.2s-.01-.11-.01-.16c0-.18,0-.37-.04-.55-.04-.2-.11-.37-.19-.55-.15-.3-.31-.58-.48-.87-.13-.24-.28-.47-.42-.7-.08-.12-.16-.25-.25-.37-.07-.11-.14-.21-.22-.31-.03-.05-.13-.11-.17-.14-.1-.07-.2-.14-.3-.21-.11-.08-.23-.17-.32-.27-.07-.07-.09-.16-.06-.25.02-.05.05-.1.11-.13.04-.02.08-.03.13-.02.04,0,.09.03.13.04.06.03.12.06.18.08.05.02.1.05.14.07.07.03.16.09.24.07.07-.02.09-.05.1-.13.01-.1,0-.21,0-.31,0-.06,0-.12.02-.17.02-.08.08-.14.17-.11.14.05.2.26.2.4,0,.11,0,.21.01.31.01.03.01.06.01.09.02.09.04.19.07.28v.05c.01.07,0,.13-.06.18,0,.01-.03.03-.03.05,0,.06.09.07.14.07.07.01.17.03.24.05.02.01.06.03.06.06-.01.06-.21.05-.24.1-.01.03,0,.06.04.07.08.02.43.02.45.13,0,.02-.04.03-.06.03-.04.01-.07.01-.11.02-.04.01-.11.02-.14.04-.04.03-.04.06.01.07.08.03.15.04.23.04.06.01.12.01.19.03.03,0,.07.02.1.03.02.01.04.03.04.04,0,.06-.25.07-.29.08-.07.03-.11.11,0,.11.09,0,.41.06.49.11.01.01.03.03.04.04.01.04-.1.05-.12.05-.06,0-.19-.01-.23.03-.03.02-.05.05-.02.08.02.02.06.02.09.02.08,0,.31.03.35.1.02.04,0,.06-.04.06-.02,0-.05.01-.07.01h-.06s-.08.03-.08.08c0,.01.01.03.03.04.02.02.1.05.13.06.05.02.11.04.12.09.01.03.02.07.02.1.01.02.01.06.02.09,0,.01.03.03.04.04.03.02.05.01.07,0,.03-.02.05-.06.05-.09.01-.04.01-.09.01-.14v-.49c0-.08-.01-.15-.02-.23-.01-.04-.02-.07-.03-.1-.02-.05-.04-.09-.07-.13-.01-.01-.02-.03-.04-.05-.05-.07-.07-.12-.1-.19-.06-.15-.07-.31-.06-.47,0-.07.02-.16.03-.23,0-.06.03-.11.04-.17,0-.03-.01-.09-.05-.06-.04.02-.08.13-.1.16-.04.1-.06.2-.09.3-.02.1-.1.14-.12.01,0-.03-.01-.07-.01-.1.01-.19.07-.38.12-.57,0-.03.03-.08,0-.1-.09-.03-.22.35-.26.41-.03.06-.08.06-.09-.01,0-.03,0-.06,0-.09,0-.1.04-.21.07-.31.02-.07.09-.19.07-.26,0-.02,0-.03-.03-.03s-.05.04-.07.05c-.04.06-.07.12-.1.17-.01.03-.04.05-.07.06t-.02-.01s-.02-.07-.02-.09c.01-.13.05-.2.09-.31.02-.04.04-.09.04-.14.01-.08-.04-.12-.09-.04-.01.01-.02.03-.03.04-.01.03-.03.05-.04.08-.02.02-.09.13-.12.1-.05-.03-.01-.2.01-.25,0-.03.02-.06.03-.09,0-.03.01-.05.02-.08.01-.03.02-.11-.01-.13-.01,0-.03,0-.04.01-.02.02-.03.04-.05.06-.02.03-.07.11-.09.13-.01.01-.02.01-.03.01-.03,0-.05-.04-.05-.07-.01-.06.02-.15.03-.21,0-.06.04-.16.02-.23,0-.01-.02-.05-.04-.05s-.04.04-.04.05c-.02.06-.04.1-.07.15-.01.01-.02.03-.04.03-.03-.01-.04-.06-.04-.09-.01-.13.03-.26.01-.38-.01-.03-.01-.05-.03-.07-.02-.01-.03,0-.04,0-.01.02-.02.04-.03.06,0,.03,0,.08-.03.11t-.02.02s-.05,0-.06-.03c-.03-.05-.03-.14-.03-.2,0-.03,0-.06-.01-.09,0-.02-.01-.04-.02-.05s-.03-.01-.05,0c-.11.06-.39-.07-.5-.13-.07-.03-.13-.06-.19-.09-.08-.05-.2-.13-.2-.23,0-.08.06-.17.14-.17.02,0,.04,0,.07.01.13.04.28.12.42.1.02,0,.04,0,.05-.03.03-.02.04-.05.05-.08.02-.05,0-.14,0-.2-.01-.07-.03-.14-.05-.21-.03-.08-.05-.15-.07-.23-.03-.09-.05-.17-.07-.26-.01-.08-.01-.14,0-.22.02-.1.07-.2.18-.21.03,0,.06,0,.09.01.1.04.16.18.19.29.01.03.02.07.03.1.09.4.19.82.39,1.18.07.13.15.25.24.36.11.13.23.25.36.36.17.15.33.3.5.45.04.03.07.06.11.09.02.02.05.05.08.06.04.02.07.03.09-.01.03-.07,0-.21-.05-.27-.01-.02-.02-.03-.03-.05-.07-.13-.01-.24.13-.28.04-.02.1-.03.13-.07.02-.03-.03-.06-.06-.07-.06-.03-.19-.01-.26.02-.04.01-.17.03-.2-.01-.05-.05.12-.16.16-.17.07-.04.15-.06.23-.08.03-.01.13-.04.12-.09,0-.02-.04-.04-.06-.04-.05-.02-.11-.01-.16,0-.08,0-.15.02-.22.05-.05.01-.16.05-.18-.01-.02-.03.06-.1.08-.11.03-.02.06-.05.09-.06.09-.06.19-.09.3-.1.1-.02.14-.08.02-.12-.06-.02-.11-.03-.17-.02-.02,0-.04.01-.06.01-.03.01-.05.01-.08.02-.03,0-.14.02-.16-.02-.01-.04.05-.1.08-.12.12-.09.25-.11.39-.12.06,0,.07-.04.03-.08-.07-.08-.23-.05-.33-.04-.03,0-.11,0-.13-.02-.02-.05.09-.12.13-.13.05-.03.1-.05.15-.06.04,0,.07-.01.11-.01.07-.01.05-.08,0-.11-.08-.06-.16-.04-.26-.04-.02,0-.04,0-.06,0-.03-.01-.09-.03-.08-.07.01-.05.08-.09.12-.1.07-.02.14-.03.21-.04.05-.02.07-.04.03-.09-.03-.03-.08-.05-.13-.06-.03,0-.06,0-.08,0-.03,0-.1,0-.11-.03-.02-.03.02-.08.04-.11.07-.07.17-.12.27-.14.31-.09.41.05.52.32.09.24.13.5.24.74.02.05.04.11.07.16.02.06.05.12.09.17.04.05.09.08.15.03.02-.02.03-.05.03-.07,0-.07-.01-.15-.02-.22-.01-.06-.03-.17-.02-.24,0-.02.01-.04.02-.06.22-.37.32-.92.39-1.34.03-.15.11-.22.25-.24.01,0,.02-.01.03-.01.05,0,.09,0,.14.01.02,0,.04,0,.06.01.21.05.22.2.2.4,0,.02-.01.05-.01.07-.05.39-.05.78-.08,1.17v.17c.01.11,0,.24-.11.3-.07.05-.17.05-.26.06-.14,0-.26.03-.35.11-.15.12-.22.39-.28.56-.03.06-.05.13-.07.2-.05.17-.09.32,0,.49.03.08.06.15.07.23.03.15-.07.3-.17.4-.04.04-.08.08-.12.11-.04.03-.07.06-.11.1-.14.13-.18.29-.2.48-.04.33.19.74.5.87.07.03.17.03.25.03.02,0,.05-.01.08-.01.03-.01.05-.02.08-.02.02,0,.03-.01.04-.01.1,0,.13-.02.21.03.19.1.34.17.56.12.17-.03.34-.14.44-.28.04-.06.1-.11.16-.14.04-.02.1-.04.15-.02.12.05.09.26.07.35-.02.1-.05.2-.08.3-.01.02-.02.03-.03.04-.1.15-.23.28-.34.42-.08.11-.17.22-.25.33-.02.04-.05.09-.06.13,0,.03,0,.06.02.08.03.03.08.02.11,0,.06-.02.11-.06.16-.1.04-.03.09-.06.13-.1.12-.1.23-.21.34-.32.12-.12.24-.24.35-.36.17-.15.65-.54.86-.57.23-.04.42.01.5.24.03.09.06.2-.07.19Zm-7.31-.92s.06-.03.1-.01c.08.04.23.16.3.23.06.05.1.11.12.18.03.08.01.14-.08.14-.07,0-.15-.05-.2-.1-.06-.05-.11-.11-.15-.17-.02-.03-.03-.05-.05-.08-.03-.04-.1-.14-.04-.19Zm.22-1.27s.05-.06.07-.08c.02-.02.04-.04.06-.06.02-.02.03-.04.04-.05l.03-.03c.03-.05.09-.08.15-.05.05.02.06.08.05.14v.04c0,.08-.01.22-.03.3-.04.11-.13.1-.22.06-.03-.02-.07-.04-.1-.06-.05-.06-.08-.13-.05-.21Zm7.58,1.49c-.15.03-.27-.02-.36-.15-.05-.08-.11-.19-.22-.19-.03,0-.06.02-.08.04-.12.1-.38.16-.48.02-.05-.07-.05-.18-.04-.26.01-.07.06-.22.04-.28-.03-.08-.09-.1-.16-.11-.02,0-.04-.01-.06-.01-.12-.03-.12-.12-.11-.23.01-.08.02-.22,0-.3-.01-.03-.03-.06-.05-.09-.02-.04-.05-.09-.07-.14-.04-.07-.06-.17,0-.23.08-.07.2-.03.27.02.45.28.59.66.55,1.18,0,.01-.01.03,0,.05,0,.06,0,.09.06.04.08-.08.11-.29.11-.4,0-.06-.01-.12-.01-.18v-.04h.01s.04.05.05.06c.11.17.21.35.31.53.02.03.08.15.13.13.06-.03,0-.22-.02-.27-.03-.05-.06-.11-.09-.17-.04-.05-.1-.14-.11-.21-.01-.05.02-.05.06-.05.03.01.07.02.1.04.04.01.17.04.2,0,.02-.04-.12-.1-.15-.12-.1-.04-.19-.08-.28-.12-.23-.13-.44-.29-.66-.45-.01-.01-.03-.02-.05-.04-.02-.02-.12-.09-.07-.13.1-.06.32-.07.44-.06.13.01.45.08.47.24,0,.03,0,.05.02.08,0,.01,0,.02.01.03.03.04.16.07.21.08.12.04.26.08.36.16.13.09.25.28.24.44-.01.02-.01.04-.01.07-.02.04-.03.1-.08.12-.03.01-.05.01-.08.03-.05.04-.03.13-.02.19.01.04.02.09.03.14.05.23-.07.41-.27.51-.04.02-.09.03-.14.04Zm1.8,1.34c-.14.08-.19.08-.29-.04-.06-.07-.12.04-.15.09-.02.03-.04.06-.07.1-.02.03-.04.06-.07.09-.23.17-.52.05-.63-.2-.03-.07-.04-.15-.04-.23,0-.05.03-.19,0-.23-.03-.02-.09-.03-.13-.02-.12.03-.19-.02-.24-.13-.05-.12-.04-.26.02-.38.08-.17.24-.28.4-.38.17-.12.3-.23.38-.42.04-.09.07-.18.12-.27.11-.21.24-.12.24.08-.01.13-.04.25-.08.37-.08.22-.21.42-.42.54-.04.03-.09.05-.13.07-.03.01-.14.06-.12.1.01.02.05.02.06.02h.02c.12-.01.22-.06.32-.12.03-.02.1-.06.13-.06,0,0,0,0,0,.01.07.03-.06.4-.08.46-.02.04-.11.28-.06.31.05,0,.11-.11.13-.13,0-.03.03-.06.03-.08.04-.13.09-.25.14-.37.02-.08.05-.15.08-.23,0-.02.02-.06.04-.08.04-.02.07.08.08.1,0,.05.02.1.03.15l.03.15s0,.06.03.1c0,.01.03.09.06.09.03,0,.03-.14.03-.17-.01-.17-.05-.32-.09-.49-.05-.16-.09-.31-.09-.49,0-.07,0-.16.05-.22.1-.15.3,0,.37.11.05.08.09.17.12.27.03.07.05.18.06.26,0,.04-.02.18-.08.18-.03-.01-.05.01-.06.04-.02.02-.02.04-.03.06,0,.04,0,.05.01.09,0,.08.03.15.04.23.01.09.02.18.02.28,0,.14-.05.32-.18.39Zm1.58.45c-.07.02-.06.09-.03.14.08.19.16.27.1.48-.11.34-.64.53-.81.13-.01-.02-.02-.06-.04-.08-.05-.05-.09-.05-.14-.01-.1.07-.17.13-.29.07-.3-.16-.35-.53-.18-.82.06-.12.11-.15.14-.3.01-.07.04-.15.12-.16.08,0,.15.06.17.13.05.12,0,.28-.03.4-.01.03-.05.16-.01.18.04.02.11-.09.12-.12.04-.05.09-.23.14-.25.03-.01.04.01.05.02.09.12.1.32.15.46.01.02.02.05.05.05.05,0,.06-.12.05-.15-.01-.24-.08-.41-.19-.62-.16-.37.19-.4.43-.25.11.08.22.19.28.3.08.13.11.36-.08.4Zm.25-1.56c-.12.34-.48.55-.85.39-.26-.1-.41-.4-.28-.66.02-.04.13-.25.04-.26-.09-.01-.19-.04-.22-.13-.11-.31.23-.49.49-.54.09-.02.2-.06.29-.1.16-.07.32-.21.51-.29.1-.04.21-.06.32-.04.05,0,.07.04.08.07,0,.13-.39.38-.51.46-.16.11-.3.15-.47.21-.14.04-.15.1.01.1.04-.01.08-.02.13-.03h.05c.11-.02.08.03.04.1-.05.08-.1.16-.15.24-.01.04-.15.26-.07.29.04.02.12-.13.2-.23.03-.04.05-.07.08-.11.13-.18.27-.37.35-.44.04-.03.08-.07.12-.09.07-.03.06.03.06.07,0,.03-.01.15,0,.25.01.1.05.17.08.17.05-.01.06-.16.06-.19,0-.15,0-.32.06-.46.04-.12.11-.22.22-.3.05-.04.15-.1.22-.05.06.05.04.15.01.2-.02.03-.03.06-.04.09-.08.2-.15.39-.14.61.01.22-.01.59-.35.59-.04,0-.08-.01-.11-.03-.03-.01-.07-.03-.1-.03-.08,0-.11.07-.13.14Zm.37,1.98s-.1-.01-.14-.04c-.04-.03-.08-.08-.11-.13-.06-.11-.06-.24.04-.32.19-.18.38.02.38.22,0,.11-.06.25-.17.27Zm1.39-.08c-.14.12-.31.15-.48.08-.12-.04-.24-.14-.31-.25-.02-.03-.05-.06-.07-.09-.07-.09-.16-.18-.24-.26-.03-.04-.1-.12-.07-.17.03-.04.07-.05.12-.05.12.01.3.15.43.19.04.02.07.01.08-.01.02-.03-.02-.08-.07-.13-.03-.04-.14-.11-.23-.16-.03-.01-.06-.02-.08-.04-.04-.03-.11-.03,0-.12.07-.05.16-.13.15-.21,0-.03-.05-.02-.09.01-.07.05-.15.08-.24.1-.13.03-.34.05-.47,0-.1-.05-.15-.12-.14-.24.01-.08.04-.14.1-.19.09-.06.25-.07.35-.02.06.04.12.04.17,0,.22-.15.5-.22.66-.03.07.09.06.23.03.34,0,.08,0,.13.02.2.03.06.1.11.17.13.01.01.02.01.03.02.18.08.29.22.33.42.03.18-.01.37-.15.48Zm1.46-1.09c-.05.09-.08.26-.1.36-.01.05-.03.1-.06.15-.34.54-1.16-.22-1.18-.58-.01-.21.17-.31.33-.28.29.05.18.34.27.46.06.07.11.05.13-.04.02-.07.01-.17.02-.25.02-.1.05-.19.1-.26.04-.05.08-.09.13-.12.19-.14.44-.09.53.1.08.18-.07.29-.17.46Zm1.14-1.22s-.11.06-.18.07c-.02.01-.04.01-.07.01-.1,0-.23.02-.29.16-.01.02-.03.04-.05.06-.05.04-.14.06-.23.07-.09.01-.17-.01-.25-.06-.12-.06-.19-.19-.15-.3.03-.07.12-.17.23-.11.03.02.06.05.09.07.1.07.12.03.11-.04-.03-.16-.16-.26-.18-.38-.01-.1.1-.11.31-.04.04.02.09.04.14.05.19.04.23-.04.14-.11-.12-.1-.33-.1-.4-.24-.05-.09-.01-.21.02-.27.08-.18.29-.18.48-.07.25.14.41.46.42.72,0,.14-.01.32-.14.41Zm-4.16-3.62c-.09-.07-.19-.1-.29-.1-.08,0-.15-.03-.2-.09-.03-.04-.06-.07-.08-.11-.07-.09-.17-.21-.28-.28-.16-.1-.36-.06-.42.12-.04.16-.01.25-.37.24-.38-.02-.45.43-.19.68.06.06.14.11.22.16.04.02.1.06.08.14-.05.15.08.23.16.27.22.08.9.09.74-.25-.14-.3-.51-.37-.71-.42-.03-.01-.19-.03-.19-.07.01-.05.17-.05.2-.05.1,0,.19.02.29.04.03,0,.1.02.12,0,.01-.01,0-.03,0-.05-.01-.06-.03-.12-.04-.18-.02-.05-.04-.14-.04-.19,0-.02.01-.03.02-.04.02-.01.04.03.05.05.12.23.26.5.46.68.02.01,0,.01.02.02t.05.04c.14.08.19.09.2.03.03-.09-.06-.23-.02-.33,0-.02.03-.03.06.01.08.1.1.23.18.34.12.17.44.2.38-.06-.05-.21-.24-.48-.4-.6Zm3.81,1.3s-.12-.06-.18-.07c-.03,0-.08,0-.13-.02-.19-.03-.18-.06-.27-.23-.06-.11-.21-.2-.37-.19-.15.01-.28.09-.4.14-.04.02-.07.03-.11.03s-.07-.01-.11-.05c-.01,0-.02-.03-.03-.05-.19-.31-.59.05-.7.16-.05.05-.08.12-.11.18-.04.1-.09.31.09.32.12.01.24-.16.3-.25.03-.05.07-.1.1-.15,0-.01.01-.02.01-.02.04-.06.07-.05.06.02-.01.06-.03.12-.05.18,0,.03-.02.05-.03.08-.01.02-.03.08,0,.11.04.02.11.01.15.01s.08-.01.11-.01c.21-.05.29-.12.43-.23.03-.02.16-.13.19-.11.03.03-.07.14-.09.17-.03.04-.07.08-.09.13-.03.06.04.07.1.08.16.02.28.04.44.09.03.01.1.03.1.06,0,.04-.03.06-.07.06-.02-.01-.05-.01-.08-.02-.11-.02-.23-.03-.35-.05-.12-.01-.21-.01-.32-.01-.06.01-.07.03-.05.06.04.11.19.18.27.27.11.1.07.21-.09.1-.07-.05-.14-.1-.16-.12-.09-.07-.2-.15-.27-.19-.13-.07-.29-.09-.43-.09-.13,0-.4.07-.42.21-.01.13.19.15.3.15.16,0,.2,0,.29.04.09.04.18.1.32.21.14.11.29.18.43.2.21.04.48.02.61-.12.03-.04.04-.07.04-.1.03-.18.21-.19.36-.21.12-.02.23-.04.32-.14.04-.05.07-.11.07-.2.01-.24-.07-.36-.18-.43Zm-17.71-.47c-.07-.25-.3-.2-.48-.09-.15.1-.13.17-.02.29.06.07.15.11.24.12.08,0,.16-.01.22-.06.07-.07.07-.17.04-.26Zm-1.83-.1c-.33-.2-.44.14-.39.41.01.06.04.12.09.15.12.07.75-.3.3-.56Zm4.14,3.04s.03.05.05.08c.04.06.09.12.15.17.05.05.13.1.2.1.09,0,.11-.06.08-.14-.02-.07-.06-.13-.12-.18-.07-.07-.22-.19-.3-.23-.04-.02-.08-.02-.1.01-.06.05.01.15.04.19Zm8.55,8.17c.08.04.16.08.24.13.1.05.2.12.29.19.07.05.14.1.17.18.02.04.03.09.02.14,0,.05-.02.12-.05.16-.08.1-.17.14-.28.19l-.06.03c-1.78.87-3.73,1.31-5.72,1.31s-4.03-.47-5.85-1.38c0,0-.02-.01-.04-.02-.01,0-.02-.01-.04-.02-.05-.03-.09-.06-.12-.11-.01,0-.02-.02-.03-.04l-.03-.12c0-.06,0-.12.04-.17.03-.06.08-.09.14-.14.11-.08.22-.15.33-.21.02-.01.03-.02.05-.03.04-.02.08-.05.12-.07h.02s.03.05.03.07v.12s.01.07.01.1c.01.02.01.03.02.04.01.06.04.13.04.19,0,.03-.01.06-.05.06-.09.01-.15-.07-.18-.14l-.03-.06s-.05-.06-.09-.07c-.08-.02-.17.02-.21.09-.02.03-.04.08-.03.12.01.15.16.24.28.29.82.35,1.7.6,2.57.76,1,.19,2.03.27,3.06.27s2.03-.08,3.02-.26c.87-.15,1.74-.39,2.55-.75.12-.05.29-.13.32-.28.01-.04,0-.07,0-.1-.03-.08-.11-.14-.19-.13-.07,0-.12.05-.15.11-.01.02-.01.04-.02.06-.05.12-.23.15-.2-.06.01-.07.03-.15.03-.23,0-.04-.01-.09-.02-.13h0v-.02h-.01s-.01-.05-.01-.06,0-.04.02-.04h.01s.03.02.04.03Z"/>
  </g>
</svg>