<?xml version="1.0" encoding="UTF-8"?>
<svg id="Layer_1" data-name="Layer 1" xmlns="http://www.w3.org/2000/svg" xmlns:xlink="http://www.w3.org/1999/xlink" viewBox="0 0 44.5 106.49">
  <defs>
    <style>
      .cls-1 {
        fill: #d91f2b;
      }

      .cls-2 {
        fill: rgba(43, 45, 66, .9);
        fill-rule: evenodd;
      }

      .cls-3 {
        filter: url(#drop-shadow-1);
      }
    </style>
    <filter id="drop-shadow-1" filterUnits="userSpaceOnUse">
      <feOffset dx="4" dy="4"/>
      <feGaussianBlur result="blur" stdDeviation="5"/>
      <feFlood flood-color="#231f20" flood-opacity=".22"/>
      <feComposite in2="blur" operator="in"/>
      <feComposite in="SourceGraphic"/>
    </filter>
  </defs>
  <g class="cls-3">
    <path class="cls-2" d="m27.4,64.96h-10.5c-1.49,0-2.87-.78-3.64-2.06l-2.12-3.54c-.48-.8-.68-1.73-.58-2.65l1.67-15.05c.1-.92-.12-1.86-.64-2.63l-4.91-8.19c-.56-.94-1.75-1.21-2.68-.59l-2.84,1.89c-1.14.76-1.51,2.36-.81,3.54l3.14,5.32c.47.79.66,1.71.56,2.63l-1.64,14.78c-.11.98.11,1.96.61,2.8l5.84,9.74c.07.12.15.24.24.35.59.78.8,1.79.71,2.76l-.7,8.04c-.22,2.48,1.74,4.61,4.22,4.61h17.61c2.49,0,4.44-2.13,4.22-4.61l-.7-8.04c-.08-.98.13-1.98.71-2.76.08-.11.16-.23.24-.35l5.84-9.73c.51-.84.72-1.83.61-2.81l-1.64-14.78c-.1-.91.1-1.83.56-2.63l3.4-5.75c.56-.95.29-2.2-.65-2.82l-3.26-2.17c-.92-.61-2.13-.33-2.68.59l-4.91,8.19c-.52.77-.74,1.71-.64,2.63l1.67,15.05c.1.92-.1,1.85-.58,2.65l-2.12,3.54c-.77,1.28-2.15,2.06-3.64,2.06Z"/>
    <path class="cls-2" d="m36.61,96.52l.47,5.36c.22,2.48-1.74,4.61-4.22,4.61H11.46c-2.49,0-4.44-2.13-4.22-4.61l.47-5.36c.19-2.19,2.02-3.87,4.22-3.87h20.46c2.2,0,4.03,1.68,4.22,3.87Z"/>
    <path class="cls-2" d="m16.22,51.12c0-2.19,1.78-3.97,3.95-3.97h3.96c2.18,0,3.95,1.75,3.95,3.97v5.91c0,2.19-1.78,3.97-3.95,3.97h-3.96c-2.18,0-3.95-1.75-3.95-3.97v-5.91Z"/>
    <path class="cls-1" d="m10.76,12.16l2.09,4.23c.08.16.23.27.4.29l4.67.68c.44.06.61.6.29.91l-3.38,3.29c-.13.12-.18.3-.15.47l.8,4.65c.07.43-.38.77-.77.56l-4.17-2.19c-.15-.08-.34-.08-.49,0l-4.17,2.19c-.39.21-.85-.13-.77-.56l.8-4.65c.03-.17-.03-.35-.15-.47l-3.38-3.29c-.32-.31-.14-.84.29-.91l4.67-.68c.17-.03.32-.13.4-.29l2.09-4.23c.2-.4.76-.4.95,0Z"/>
    <path class="cls-1" d="m34.5,12.16l2.09,4.23c.08.16.23.27.4.29l4.67.68c.44.06.61.6.29.91l-3.38,3.29c-.13.12-.18.3-.15.47l.8,4.65c.07.43-.38.77-.77.56l-4.17-2.19c-.15-.08-.34-.08-.49,0l-4.17,2.19c-.39.21-.85-.13-.77-.56l.8-4.65c.03-.17-.03-.35-.15-.47l-3.38-3.29c-.32-.31-.14-.84.29-.91l4.67-.68c.17-.03.32-.13.4-.29l2.09-4.23c.2-.4.76-.4.95,0Z"/>
    <path class="cls-1" d="m22.39.3l2.09,4.23c.08.16.23.27.4.29l4.67.68c.44.06.61.6.29.91l-3.38,3.29c-.13.12-.18.3-.15.47l.8,4.65c.07.43-.38.77-.77.56l-4.17-2.19c-.15-.08-.34-.08-.49,0l-4.17,2.19c-.39.21-.85-.13-.77-.56l.8-4.65c.03-.17-.03-.35-.15-.47l-3.38-3.29c-.32-.31-.14-.84.29-.91l4.67-.68c.17-.03.32-.13.4-.29L21.44.3c.2-.4.76-.4.95,0Z"/>
  </g>
</svg>