<?xml version="1.0" encoding="utf-8"?>
<!-- Generator: Adobe Illustrator 27.5.0, SVG Export Plug-In . SVG Version: 6.00 Build 0)  -->
<svg version="1.1" id="Layer_1" xmlns="http://www.w3.org/2000/svg" xmlns:xlink="http://www.w3.org/1999/xlink" x="0px" y="0px"
	 viewBox="0 0 44.5 106.49" style="enable-background:new 0 0 44.5 106.49;" xml:space="preserve">
<style type="text/css">
	.st0{fill-rule:evenodd;clip-rule:evenodd;fill:#2B2D42;}
	.st1{fill:#D91F2B;}
</style>
<g>
	<path class="st0" d="M26.85,63.72h-9.39c-1.33,0-2.57-0.7-3.25-1.84l-1.9-3.17c-0.43-0.72-0.61-1.55-0.52-2.37l1.49-13.46
		c0.09-0.82-0.11-1.66-0.57-2.35l-4.39-7.32c-0.5-0.84-1.56-1.08-2.4-0.53l-2.54,1.69c-1.02,0.68-1.35,2.11-0.72,3.17l2.81,4.76
		c0.42,0.71,0.59,1.53,0.5,2.35L4.51,57.86c-0.1,0.88,0.1,1.75,0.55,2.5l5.22,8.71c0.06,0.11,0.13,0.21,0.21,0.31
		c0.53,0.7,0.72,1.6,0.63,2.47l-0.63,7.19c-0.2,2.22,1.56,4.12,3.77,4.12h15.75c2.23,0,3.97-1.9,3.77-4.12l-0.63-7.19
		c-0.07-0.88,0.12-1.77,0.63-2.47c0.07-0.1,0.14-0.21,0.21-0.31l5.22-8.7c0.46-0.75,0.64-1.64,0.55-2.51l-1.47-13.22
		c-0.09-0.81,0.09-1.64,0.5-2.35l3.04-5.14c0.5-0.85,0.26-1.97-0.58-2.52l-2.91-1.94c-0.82-0.55-1.9-0.3-2.4,0.53l-4.39,7.32
		c-0.46,0.69-0.66,1.53-0.57,2.35l1.49,13.46c0.09,0.82-0.09,1.65-0.52,2.37l-1.9,3.17c-0.69,1.14-1.92,1.84-3.25,1.84L26.85,63.72z
		"/>
	<path class="st0" d="M35.09,91.94l0.42,4.79c0.2,2.22-1.56,4.12-3.77,4.12H12.6c-2.23,0-3.97-1.9-3.77-4.12l0.42-4.79
		c0.17-1.96,1.81-3.46,3.77-3.46h18.29C33.28,88.48,34.92,89.98,35.09,91.94z"/>
	<path class="st0" d="M16.86,51.34c0-1.96,1.59-3.55,3.53-3.55h3.54c1.95,0,3.53,1.56,3.53,3.55v5.28c0,1.96-1.59,3.55-3.53,3.55
		h-3.54c-1.95,0-3.53-1.56-3.53-3.55C16.86,56.63,16.86,51.34,16.86,51.34z"/>
	<path class="st1" d="M11.97,16.51l1.87,3.78c0.07,0.14,0.21,0.24,0.36,0.26l4.18,0.61c0.39,0.05,0.55,0.54,0.26,0.81l-3.02,2.94
		c-0.12,0.11-0.16,0.27-0.13,0.42l0.72,4.16c0.06,0.38-0.34,0.69-0.69,0.5l-3.73-1.96c-0.13-0.07-0.3-0.07-0.44,0l-3.73,1.96
		c-0.35,0.19-0.76-0.12-0.69-0.5l0.72-4.16c0.03-0.15-0.03-0.31-0.13-0.42l-3.02-2.94c-0.29-0.28-0.13-0.75,0.26-0.81l4.18-0.61
		c0.15-0.03,0.29-0.12,0.36-0.26l1.87-3.78c0.18-0.36,0.68-0.36,0.85,0H11.97z"/>
	<path class="st1" d="M33.2,16.51l1.87,3.78c0.07,0.14,0.21,0.24,0.36,0.26l4.18,0.61c0.39,0.05,0.55,0.54,0.26,0.81l-3.02,2.94
		c-0.12,0.11-0.16,0.27-0.13,0.42l0.72,4.16c0.06,0.38-0.34,0.69-0.69,0.5L33,28.04c-0.13-0.07-0.3-0.07-0.44,0l-3.73,1.96
		c-0.35,0.19-0.76-0.12-0.69-0.5l0.72-4.16c0.03-0.15-0.03-0.31-0.13-0.42l-3.02-2.94c-0.29-0.28-0.13-0.75,0.26-0.81l4.18-0.61
		c0.15-0.03,0.29-0.12,0.36-0.26l1.87-3.78c0.18-0.36,0.68-0.36,0.85,0H33.2z"/>
	<path class="st1" d="M22.37,5.91l1.87,3.78c0.07,0.14,0.21,0.24,0.36,0.26l4.18,0.61c0.39,0.05,0.55,0.54,0.26,0.81l-3.02,2.94
		c-0.12,0.11-0.16,0.27-0.13,0.42l0.72,4.16c0.06,0.38-0.34,0.69-0.69,0.5l-3.73-1.96c-0.13-0.07-0.3-0.07-0.44,0l-3.73,1.96
		c-0.35,0.19-0.76-0.12-0.69-0.5l0.72-4.16c0.03-0.15-0.03-0.31-0.13-0.42l-3.02-2.94c-0.29-0.28-0.13-0.75,0.26-0.81l4.18-0.61
		c0.15-0.03,0.29-0.12,0.36-0.26l1.85-3.78C21.7,5.55,22.2,5.55,22.37,5.91z"/>
</g>
</svg>
