<?xml version="1.0" encoding="UTF-8"?>
<svg id="Layer_1" data-name="Layer 1" xmlns="http://www.w3.org/2000/svg" xmlns:xlink="http://www.w3.org/1999/xlink" viewBox="0 0 109.92 264.72">
  <defs>
    <style>
      .cls-1 {
        filter: url(#drop-shadow-1);
      }

      .cls-1, .cls-2, .cls-3, .cls-4, .cls-5, .cls-6 {
        fill-rule: evenodd;
      }

      .cls-1, .cls-2, .cls-6 {
        fill: #f9f9fa;
      }

      .cls-2 {
        filter: url(#drop-shadow-3);
      }

      .cls-3 {
        filter: url(#drop-shadow-5);
      }

      .cls-3, .cls-4, .cls-5 {
        fill: #d91f2b;
      }

      .cls-4 {
        filter: url(#drop-shadow-4);
      }

      .cls-5 {
        filter: url(#drop-shadow-2);
      }

      .cls-6 {
        filter: url(#drop-shadow-6);
      }
    </style>
    <filter id="drop-shadow-1" filterUnits="userSpaceOnUse">
      <feOffset dx="7" dy="7"/>
      <feGaussianBlur result="blur" stdDeviation="5"/>
      <feFlood flood-color="#231f20" flood-opacity=".15"/>
      <feComposite in2="blur" operator="in"/>
      <feComposite in="SourceGraphic"/>
    </filter>
    <filter id="drop-shadow-2" filterUnits="userSpaceOnUse">
      <feOffset dx="7" dy="7"/>
      <feGaussianBlur result="blur-2" stdDeviation="5"/>
      <feFlood flood-color="#231f20" flood-opacity=".15"/>
      <feComposite in2="blur-2" operator="in"/>
      <feComposite in="SourceGraphic"/>
    </filter>
    <filter id="drop-shadow-3" filterUnits="userSpaceOnUse">
      <feOffset dx="7" dy="7"/>
      <feGaussianBlur result="blur-3" stdDeviation="5"/>
      <feFlood flood-color="#231f20" flood-opacity=".15"/>
      <feComposite in2="blur-3" operator="in"/>
      <feComposite in="SourceGraphic"/>
    </filter>
    <filter id="drop-shadow-4" filterUnits="userSpaceOnUse">
      <feOffset dx="7" dy="7"/>
      <feGaussianBlur result="blur-4" stdDeviation="5"/>
      <feFlood flood-color="#231f20" flood-opacity=".15"/>
      <feComposite in2="blur-4" operator="in"/>
      <feComposite in="SourceGraphic"/>
    </filter>
    <filter id="drop-shadow-5" filterUnits="userSpaceOnUse">
      <feOffset dx="7" dy="7"/>
      <feGaussianBlur result="blur-5" stdDeviation="5"/>
      <feFlood flood-color="#231f20" flood-opacity=".15"/>
      <feComposite in2="blur-5" operator="in"/>
      <feComposite in="SourceGraphic"/>
    </filter>
    <filter id="drop-shadow-6" filterUnits="userSpaceOnUse">
      <feOffset dx="7" dy="7"/>
      <feGaussianBlur result="blur-6" stdDeviation="5"/>
      <feFlood flood-color="#231f20" flood-opacity=".15"/>
      <feComposite in2="blur-6" operator="in"/>
      <feComposite in="SourceGraphic"/>
    </filter>
  </defs>
  <path class="cls-1" d="m87.73,203.77c-.34-.82-.93-1.47-1.85-2.01-.25-.15-.54-.23-.83-.23-.9,0-1.63-.73-1.63-1.63v-6.5c0-6.59-5.34-11.93-11.93-11.93h-4.91c-6.59,0-11.93,5.34-11.93,11.93v6.5c0,.9-.73,1.63-1.63,1.63h-.02c-.28,0-.55.07-.8.21-.98.55-1.57,1.21-1.9,2.05-.42,1.06.39,2.21,1.53,2.21h1.19c.9,0,1.63.73,1.63,1.63v23.08c0,6.59,5.34,11.93,11.93,11.93h4.91c6.59,0,11.93-5.34,11.93-11.93v-23.08c0-.9.73-1.63,1.63-1.63h1.17c1.15,0,1.96-1.17,1.51-2.23Zm-27.93-4.84c5.6-2.19,12.87-2.19,18.47,0,.81.32,1.24,1.22.95,2.05-.49,1.44-1,2.89-1.49,4.36-.23.66-.85,1.11-1.55,1.11h-14.3c-.7,0-1.32-.45-1.54-1.11-.49-1.47-1.01-2.92-1.5-4.36-.29-.83.14-1.73.96-2.05Zm18.47,26.24c-6.09,2.39-14.17,2.18-19.91-.63.63-1.9,1.32-3.86,1.97-5.78.23-.66.85-1.1,1.55-1.1h14.31c.7,0,1.32.44,1.54,1.1.49,1.45,1,2.92,1.5,4.37.28.83-.15,1.72-.96,2.04Z"/>
  <path class="cls-5" d="m45.87,173.18c-.34-.81-.93-1.47-1.85-2.01-.26-.15-.54-.23-.84-.23-.9,0-1.63-.73-1.63-1.63v-6.5c0-6.59-5.34-11.93-11.93-11.93h-4.91c-6.59,0-11.93,5.34-11.93,11.93v6.5c0,.9-.73,1.63-1.63,1.63h0c-.28,0-.56.08-.8.21-.98.55-1.58,1.22-1.9,2.05-.42,1.06.38,2.21,1.52,2.21h1.19c.9,0,1.63.73,1.63,1.63v23.09c0,6.58,5.34,11.92,11.93,11.92h4.91c6.59,0,11.93-5.34,11.93-11.92v-23.09c0-.9.73-1.63,1.63-1.63h1.17c1.15,0,1.96-1.17,1.52-2.23Zm-9.47,21.41c-6.09,2.38-14.16,2.17-19.91-.63.64-1.91,1.33-3.86,1.98-5.78.22-.67.84-1.11,1.54-1.11h14.31c.7,0,1.32.44,1.55,1.11.49,1.44,1,2.91,1.49,4.36.29.83-.14,1.73-.96,2.05Zm.96-24.19c-.49,1.44-1.01,2.88-1.5,4.35-.22.67-.84,1.12-1.54,1.12h-14.3c-.7,0-1.32-.45-1.55-1.12-.49-1.47-1-2.91-1.49-4.35-.29-.83.14-1.73.95-2.05,5.6-2.19,12.87-2.19,18.47,0,.82.32,1.25,1.22.96,2.05Z"/>
  <path class="cls-2" d="m87.55,132.41c-.34-.81-.93-1.47-1.86-2.01-.25-.14-.54-.22-.83-.22-.9,0-1.63-.73-1.63-1.64v-6.5c0-6.59-5.34-11.93-11.93-11.93h-4.91c-6.59,0-11.93,5.34-11.93,11.93v6.5c0,.91-.73,1.64-1.63,1.64h-.01c-.28,0-.56.07-.8.21-.98.55-1.58,1.21-1.91,2.04-.41,1.07.39,2.21,1.53,2.21h1.19c.9,0,1.63.73,1.63,1.63v23.09c0,6.58,5.34,11.93,11.93,11.93h4.91c6.59,0,11.93-5.35,11.93-11.93v-23.09c0-.9.73-1.63,1.63-1.63h1.17c1.15,0,1.96-1.16,1.52-2.23Zm-27.94-4.83c5.6-2.19,12.87-2.19,18.47,0,.82.32,1.24,1.22.96,2.05-.5,1.44-1.01,2.88-1.5,4.35-.22.67-.84,1.12-1.55,1.12h-14.29c-.7,0-1.33-.45-1.55-1.12-.49-1.47-1-2.91-1.5-4.35-.28-.83.14-1.73.96-2.05Zm18.47,26.24c-6.09,2.38-14.16,2.17-19.91-.63.64-1.9,1.32-3.86,1.98-5.78.22-.66.84-1.11,1.54-1.11h14.31c.7,0,1.32.45,1.55,1.11.49,1.45,1,2.91,1.49,4.36.29.83-.14,1.73-.96,2.05Z"/>
  <path class="cls-4" d="m45.68,101.83c-.33-.82-.92-1.47-1.85-2.01-.25-.15-.54-.23-.83-.23-.9,0-1.63-.73-1.63-1.63v-6.5c0-6.59-5.34-11.93-11.93-11.93h-4.91c-6.59,0-11.93,5.34-11.93,11.93v6.5c0,.9-.73,1.63-1.63,1.63h-.02c-.28,0-.55.07-.8.21-.98.55-1.57,1.21-1.9,2.05-.42,1.06.39,2.21,1.53,2.21h1.19c.9,0,1.63.73,1.63,1.63v23.08c0,6.59,5.34,11.93,11.93,11.93h4.91c6.59,0,11.93-5.34,11.93-11.93v-23.08c0-.9.73-1.63,1.63-1.63h1.17c1.15,0,1.96-1.17,1.51-2.23Zm-27.93-4.84c5.6-2.19,12.87-2.19,18.47,0,.81.32,1.24,1.22.96,2.05-.5,1.44-1.01,2.89-1.5,4.36-.23.66-.85,1.11-1.55,1.11h-14.29c-.71,0-1.33-.45-1.55-1.11-.49-1.47-1.01-2.92-1.5-4.36-.29-.83.14-1.73.96-2.05Zm18.47,26.24c-6.09,2.39-14.17,2.18-19.91-.62.63-1.91,1.32-3.87,1.97-5.79.23-.66.85-1.1,1.55-1.1h14.31c.7,0,1.32.44,1.54,1.1.49,1.45,1.01,2.92,1.5,4.37.28.83-.14,1.73-.96,2.04Z"/>
  <path class="cls-3" d="m87.36,61.06c-.34-.82-.93-1.47-1.85-2.01-.25-.15-.54-.23-.83-.23-.9,0-1.64-.73-1.64-1.63v-6.5c0-6.59-5.34-11.93-11.92-11.93h-4.92c-6.58,0-11.92,5.34-11.92,11.93v6.5c0,.9-.73,1.63-1.64,1.63h-.01c-.28,0-.56.07-.8.21-.98.55-1.57,1.22-1.9,2.05-.42,1.06.38,2.21,1.53,2.21h1.18c.91,0,1.64.73,1.64,1.63v23.08c0,6.59,5.34,11.93,11.92,11.93h4.92c6.58,0,11.92-5.34,11.92-11.93v-23.08c0-.9.74-1.63,1.64-1.63h1.16c1.15,0,1.96-1.17,1.52-2.23Zm-27.93-4.84c5.59-2.18,12.87-2.18,18.47,0,.81.32,1.24,1.23.95,2.06-.49,1.43-1,2.88-1.49,4.35-.23.66-.85,1.11-1.55,1.11h-14.3c-.7,0-1.32-.45-1.54-1.11-.5-1.47-1.01-2.92-1.5-4.35-.29-.83.14-1.74.96-2.06Zm18.47,26.25c-6.09,2.38-14.17,2.17-19.91-.63.63-1.91,1.32-3.86,1.97-5.79.22-.66.85-1.1,1.55-1.1h14.31c.7,0,1.32.44,1.54,1.1.49,1.45,1,2.92,1.5,4.37.28.83-.15,1.73-.96,2.05Z"/>
  <path class="cls-6" d="m45.87,30.47c-.34-.81-.93-1.46-1.85-2.01-.26-.14-.54-.22-.84-.22-.9,0-1.63-.73-1.63-1.64v-6.5c0-6.59-5.34-11.93-11.93-11.93h-4.91c-6.59,0-11.93,5.34-11.93,11.93v6.5c0,.91-.73,1.64-1.63,1.64h0c-.28,0-.56.07-.8.21-.98.55-1.58,1.21-1.9,2.04-.42,1.07.38,2.21,1.52,2.21h1.19c.9,0,1.63.73,1.63,1.64v23.08c0,6.59,5.34,11.93,11.93,11.93h4.91c6.59,0,11.93-5.34,11.93-11.93v-23.08c0-.91.73-1.64,1.63-1.64h1.17c1.15,0,1.96-1.16,1.52-2.23Zm-9.47,21.41c-6.09,2.38-14.16,2.17-19.91-.63.64-1.9,1.33-3.86,1.98-5.78.22-.66.84-1.11,1.54-1.11h14.31c.7,0,1.32.45,1.55,1.11.49,1.45,1,2.91,1.49,4.36.29.83-.14,1.73-.96,2.05Zm.96-24.19c-.49,1.44-1.01,2.88-1.5,4.35-.22.67-.84,1.12-1.54,1.12h-14.3c-.7,0-1.32-.45-1.55-1.12-.49-1.47-1-2.91-1.49-4.35-.29-.83.14-1.73.95-2.05,5.6-2.19,12.87-2.19,18.47,0,.82.32,1.25,1.22.96,2.05Z"/>
</svg>