<?xml version="1.0" encoding="utf-8"?>
<!-- Generator: Adobe Illustrator 27.5.0, SVG Export Plug-In . SVG Version: 6.00 Build 0)  -->
<svg version="1.1" id="Layer_1" xmlns="http://www.w3.org/2000/svg" xmlns:xlink="http://www.w3.org/1999/xlink" x="0px" y="0px"
	 viewBox="0 0 150 150" style="enable-background:new 0 0 150 150;" xml:space="preserve">
<style type="text/css">
	.st0{fill:#D71F26;}
	.st1{fill:#FFFFFF;}
</style>
<rect y="0.27" class="st0" width="150" height="150"/>
<g>
	<g>
		<path class="st1" d="M58.42,72.47L55.4,61H35.52l-3.1,11.47H14.25l19.97-61.46h22.06L76.5,72.47H58.42z M51.97,47.44l-2.64-10.05
			c-0.28-1.09-0.68-2.64-1.21-4.67c-0.53-2.02-1.05-4.12-1.57-6.28c-0.52-2.16-0.91-3.94-1.19-5.34c-0.25,1.4-0.61,3.12-1.07,5.17
			s-0.94,4.08-1.42,6.09c-0.49,2.01-0.91,3.68-1.28,5.02l-2.64,10.05H51.97z"/>
		<path class="st1" d="M83.12,11.27h21.35c8.85,0,15.15,1.31,18.92,3.94c3.77,2.62,5.65,6.39,5.65,11.3c0,2.68-0.48,4.95-1.44,6.82
			c-0.96,1.87-2.18,3.35-3.64,4.44c-1.46,1.09-2.97,1.83-4.5,2.22v0.42c1.67,0.42,3.34,1.11,5,2.07c1.66,0.96,3.04,2.4,4.14,4.31
			c1.1,1.91,1.65,4.5,1.65,7.77c0,3.71-0.94,6.91-2.83,9.59s-4.57,4.74-8.06,6.17c-3.49,1.44-7.63,2.16-12.43,2.16H83.12V11.27z
			 M99.65,34.75h4.98c2.74,0,4.66-0.57,5.78-1.7s1.67-2.5,1.67-4.12c0-1.67-0.64-2.95-1.91-3.83c-1.27-0.88-3.23-1.32-5.88-1.32
			h-4.65V34.75z M99.65,46.85V59.7h5.82c2.88,0,4.88-0.62,6.03-1.86c1.14-1.24,1.72-2.8,1.72-4.67c0-1.09-0.24-2.11-0.73-3.08
			s-1.32-1.74-2.49-2.34c-1.17-0.6-2.79-0.9-4.86-0.9H99.65z"/>
	</g>
</g>
<g>
	<g>
		<path class="st1" d="M23.48,141.02V79.81h16.54v47.85h23.57v13.35H23.48z"/>
		<path class="st1" d="M125.42,79.81v36.84c0,5.14-0.98,9.59-2.93,13.38c-1.95,3.78-4.88,6.7-8.79,8.75
			c-3.91,2.05-8.81,3.08-14.7,3.08c-8.43,0-14.86-2.16-19.3-6.49s-6.66-10.44-6.66-18.34V79.81h16.62v35.92
			c0,4.33,0.81,7.47,2.43,9.42c1.62,1.95,4,2.93,7.16,2.93c2.26,0,4.1-0.42,5.53-1.28c1.42-0.85,2.46-2.2,3.12-4.04
			s0.98-4.21,0.98-7.12V79.81H125.42z"/>
	</g>
</g>
</svg>
